<svg xmlns="http://www.w3.org/2000/svg" xmlns:xlink="http://www.w3.org/1999/xlink" contentStyleType="text/css" height="885px" preserveAspectRatio="none" style="width:450px;height:885px;background:#FFFFFF;" version="1.1" viewBox="0 0 450 885" width="450px" zoomAndPan="magnify"><title>Acceso de Usuario al Sistema</title><defs/><g><text fill="#000000" font-family="sans-serif" font-size="14" font-weight="bold" lengthAdjust="spacing" textLength="232.0117" x="102.1556" y="22.9951">Acceso de Usuario al Sistema</text><g id="elem_c1"><polygon fill="#F1F1F1" points="204.11,267.2969,216.11,279.2969,204.11,291.2969,192.11,279.2969,204.11,267.2969" style="stroke:#181818;stroke-width:0.5;"/></g><g id="elem_c2"><polygon fill="#F1F1F1" points="183.11,528.2969,195.11,540.2969,183.11,552.2969,171.11,540.2969,183.11,528.2969" style="stroke:#181818;stroke-width:0.5;"/></g><g id="elem_c3"><polygon fill="#F1F1F1" points="276.11,756.2969,288.11,768.2969,276.11,780.2969,264.11,768.2969,276.11,756.2969" style="stroke:#181818;stroke-width:0.5;"/></g><ellipse cx="204.11" cy="53.2969" fill="#222222" rx="10" ry="10" style="stroke:#222222;stroke-width:1;"/><g id="Usuario"><rect fill="#F1F1F1" height="50" rx="12.5" ry="12.5" style="stroke:#181818;stroke-width:0.5;" width="73.2041" x="167.51" y="140.2969"/><line style="stroke:#181818;stroke-width:0.5;" x1="167.51" x2="240.7141" y1="166.5938" y2="166.5938"/><text fill="#000000" font-family="sans-serif" font-size="14" lengthAdjust="spacing" textLength="53.2041" x="177.51" y="158.292">Usuario</text></g><g id="Registro"><rect fill="#F1F1F1" height="50" rx="12.5" ry="12.5" style="stroke:#181818;stroke-width:0.5;" width="78.2217" x="7" y="368.2969"/><line style="stroke:#181818;stroke-width:0.5;" x1="7" x2="85.2217" y1="394.5938" y2="394.5938"/><text fill="#000000" font-family="sans-serif" font-size="14" lengthAdjust="spacing" textLength="58.2217" x="17" y="386.292">Registro</text></g><g id="InicioSesion"><rect fill="#F1F1F1" height="50" rx="12.5" ry="12.5" style="stroke:#181818;stroke-width:0.5;" width="103.166" x="150.53" y="368.2969"/><line style="stroke:#181818;stroke-width:0.5;" x1="150.53" x2="253.696" y1="394.5938" y2="394.5938"/><text fill="#000000" font-family="sans-serif" font-size="14" lengthAdjust="spacing" textLength="83.166" x="160.53" y="386.292">InicioSesion</text></g><g id="PerfilAnonimo"><rect fill="#F1F1F1" height="50" rx="12.5" ry="12.5" style="stroke:#181818;stroke-width:0.5;" width="117.501" x="287.36" y="448.2969"/><line style="stroke:#181818;stroke-width:0.5;" x1="287.36" x2="404.861" y1="474.5938" y2="474.5938"/><text fill="#000000" font-family="sans-serif" font-size="14" lengthAdjust="spacing" textLength="97.501" x="297.36" y="466.292">PerfilAnonimo</text></g><g id="Perfil"><rect fill="#F1F1F1" height="50" rx="12.5" ry="12.5" style="stroke:#181818;stroke-width:0.5;" width="55.5195" x="174.35" y="629.2969"/><line style="stroke:#181818;stroke-width:0.5;" x1="174.35" x2="229.8695" y1="655.5938" y2="655.5938"/><text fill="#000000" font-family="sans-serif" font-size="14" lengthAdjust="spacing" textLength="35.5195" x="184.35" y="647.292">Perfil</text></g><ellipse cx="276.11" cy="868.2969" fill="none" rx="11" ry="11" style="stroke:#222222;stroke-width:1;"/><ellipse cx="276.11" cy="868.2969" fill="#222222" rx="6" ry="6" style="stroke:#222222;stroke-width:1;"/><!--link *start* to Usuario--><g id="link_*start*_Usuario"><path d="M204.11,63.6769 C204.11,80.4069 204.11,109.8869 204.11,133.9269 " fill="none" id="*start*-to-Usuario" style="stroke:#181818;stroke-width:1;"/><polygon fill="#181818" points="204.11,139.9269,208.11,130.9269,204.11,134.9269,200.11,130.9269,204.11,139.9269" style="stroke:#181818;stroke-width:1;"/><text fill="#000000" font-family="sans-serif" font-size="13" lengthAdjust="spacing" textLength="45.9126" x="205.11" y="106.3638">Acceso</text></g><!--link Usuario to c1--><g id="link_Usuario_c1"><path d="M204.11,190.5969 C204.11,214.1469 204.11,242.8469 204.11,260.7169 " fill="none" id="Usuario-to-c1" style="stroke:#181818;stroke-width:1;"/><polygon fill="#181818" points="204.11,266.7169,208.11,257.7169,204.11,261.7169,200.11,257.7169,204.11,266.7169" style="stroke:#181818;stroke-width:1;"/><text fill="#000000" font-family="sans-serif" font-size="13" lengthAdjust="spacing" textLength="136.1128" x="205.11" y="233.3638">Elige tipo de entrada</text></g><!--link c1 to Registro--><g id="link_c1_Registro"><path d="M192.51,280.1469 C165.97,280.4669 100.41,285.0869 65.11,321.2969 C53.09,333.6269 49.1196,346.7332 47.4296,362.0132 " fill="none" id="c1-to-Registro" style="stroke:#181818;stroke-width:1;"/><polygon fill="#181818" points="46.77,367.9769,51.7351,359.4711,47.3197,363.0072,43.7836,358.5917,46.77,367.9769" style="stroke:#181818;stroke-width:1;"/><text fill="#000000" font-family="sans-serif" font-size="13" lengthAdjust="spacing" textLength="126.7056" x="66.11" y="334.3638">Registro de usuario</text></g><!--link c1 to InicioSesion--><g id="link_c1_InicioSesion"><path d="M203.14,290.7369 C202.41,299.0169 201.49,310.8869 201.11,321.2969 C200.54,336.8169 200.6139,348.2592 200.9939,361.9792 " fill="none" id="c1-to-InicioSesion" style="stroke:#181818;stroke-width:1;"/><polygon fill="#181818" points="201.16,367.9769,204.9093,358.8696,201.0216,362.9788,196.9124,359.0911,201.16,367.9769" style="stroke:#181818;stroke-width:1;"/><text fill="#000000" font-family="sans-serif" font-size="13" lengthAdjust="spacing" textLength="100.2612" x="202.11" y="334.3638">Inicio de sesi&#243;n</text></g><!--link c1 to PerfilAnonimo--><g id="link_c1_PerfilAnonimo"><path d="M214.64,281.3769 C235.52,284.0869 282.3,293.1369 307.11,321.2969 C338.71,357.1469 345.081,409.3499 346.111,442.0299 " fill="none" id="c1-to-PerfilAnonimo" style="stroke:#181818;stroke-width:1;"/><polygon fill="#181818" points="346.3,448.0269,350.0145,438.9053,346.1425,443.0294,342.0185,439.1574,346.3,448.0269" style="stroke:#181818;stroke-width:1;"/><text fill="#000000" font-family="sans-serif" font-size="13" lengthAdjust="spacing" textLength="106.6724" x="321.11" y="334.3638">Acceso an&#243;nimo</text></g><!--link Registro to c2--><g id="link_Registro_c2"><path d="M51.51,418.6169 C57.76,441.7369 70.13,476.1669 92.11,498.2969 C115.68,522.0269 149.5776,531.9541 167.7176,536.0541 " fill="none" id="Registro-to-c2" style="stroke:#181818;stroke-width:1;"/><polygon fill="#181818" points="173.57,537.3769,165.6733,531.4912,168.693,536.2746,163.9096,539.2943,173.57,537.3769" style="stroke:#181818;stroke-width:1;"/><text fill="#000000" font-family="sans-serif" font-size="13" lengthAdjust="spacing" textLength="67.9136" x="93.11" y="477.8638">Crea perfil</text></g><!--link InicioSesion to c2--><g id="link_InicioSesion_c2"><path d="M184.54,418.6469 C179.13,427.5369 173.87,437.9569 171.11,448.2969 C163.15,478.1669 172.1064,509.382 177.9064,525.482 " fill="none" id="InicioSesion-to-c2" style="stroke:#181818;stroke-width:1;"/><polygon fill="#181818" points="179.94,531.1269,180.6529,521.3039,178.2454,526.4228,173.1264,524.0153,179.94,531.1269" style="stroke:#181818;stroke-width:1;"/><text fill="#000000" font-family="sans-serif" font-size="13" lengthAdjust="spacing" textLength="97.062" x="172.11" y="477.8638">Accede a perfil</text></g><!--link c2 to Perfil--><g id="link_c2_Perfil"><path d="M184.05,551.6069 C185.17,563.2369 187.27,582.6969 190.11,599.2969 C191.78,609.0469 192.7143,613.8474 194.8243,623.0874 " fill="none" id="c2-to-Perfil" style="stroke:#181818;stroke-width:1;"/><polygon fill="#181818" points="196.16,628.9369,198.056,619.2722,195.0469,624.0624,190.2568,621.0532,196.16,628.9369" style="stroke:#181818;stroke-width:1;"/><text fill="#000000" font-family="sans-serif" font-size="13" lengthAdjust="spacing" textLength="107.6563" x="191.11" y="595.3638">Gesti&#243;n de perfil</text></g><!--link Perfil to c3--><g id="link_Perfil_c3"><path d="M205.88,679.5869 C209,694.0969 214.54,712.3569 224.11,726.2969 C235.96,743.5469 252.0051,754.055 263.3251,760.395 " fill="none" id="Perfil-to-c3" style="stroke:#181818;stroke-width:1;"/><polygon fill="#181818" points="268.56,763.3269,262.6623,755.4391,264.1976,760.8836,258.7531,762.4189,268.56,763.3269" style="stroke:#181818;stroke-width:1;"/><text fill="#000000" font-family="sans-serif" font-size="13" lengthAdjust="spacing" textLength="90.2129" x="225.11" y="722.3638">Configuraci&#243;n</text></g><!--link PerfilAnonimo to c3--><g id="link_PerfilAnonimo_c3"><path d="M349.03,498.7669 C353.5,545.6669 357.93,650.2969 320.11,726.2969 C311.74,743.1269 298.4464,753.3269 288.2864,759.8169 " fill="none" id="PerfilAnonimo-to-c3" style="stroke:#181818;stroke-width:1;"/><polygon fill="#181818" points="283.23,763.0469,292.9679,761.5729,287.4437,760.3553,288.6613,754.831,283.23,763.0469" style="stroke:#181818;stroke-width:1;"/><text fill="#000000" font-family="sans-serif" font-size="13" lengthAdjust="spacing" textLength="90.2129" x="352.11" y="595.3638">Configuraci&#243;n</text></g><!--link c3 to *end*--><g id="link_c3_*end*"><path d="M276.11,780.9269 C276.11,800.1869 276.11,832.4369 276.11,850.8769 " fill="none" id="c3-to-*end*" style="stroke:#181818;stroke-width:1;"/><polygon fill="#181818" points="276.11,856.8769,280.11,847.8769,276.11,851.8769,272.11,847.8769,276.11,856.8769" style="stroke:#181818;stroke-width:1;"/><text fill="#000000" font-family="sans-serif" font-size="13" lengthAdjust="spacing" textLength="19.3286" x="277.11" y="823.3638">Fin</text></g><!--SRC=[TP11Qm8n48Nl-HLpBdYetXPPa6ABjrBnL7eOuhWTM2UIP7-PFy4_vapSZHNgBNdlotkFPCuzmSfxIW7s1BiqOEG0sCEMKwOZkfGn4_XNM2xzRs1FRJjfyt-qnL_DVR_ym6pMrjncx7AJOAPcDx3kkIF8V2exI7B4FJgrZFYYJjT4Ur-FIWsta8dQ27iEMqeSHCdRrRYaqkKi4_T9yS3zIeBmyJu9K9HHnTMACcwkn5iaX5DvvXvQAc4PsbGf5UzLwdzGohR1vep8w9M8XPK4EN0tHFHbxEFAPvHgPja_D_3ESWK0]--></g></svg>