<svg xmlns="http://www.w3.org/2000/svg" xmlns:xlink="http://www.w3.org/1999/xlink" contentStyleType="text/css" height="650px" preserveAspectRatio="none" style="width:192px;height:650px;background:#FFFFFF;" version="1.1" viewBox="0 0 192 650" width="192px" zoomAndPan="magnify"><defs/><g><g id="elem_c1"><polygon fill="#F1F1F1" points="104.07,214,116.07,226,104.07,238,92.07,226,104.07,214" style="stroke:#181818;stroke-width:0.5;"/></g><g id="elem_c2"><polygon fill="#F1F1F1" points="104.07,410,116.07,422,104.07,434,92.07,422,104.07,410" style="stroke:#181818;stroke-width:0.5;"/></g><ellipse cx="104.07" cy="16" fill="#222222" rx="10" ry="10" style="stroke:#222222;stroke-width:1.0;"/><g id="Anonimo"><rect fill="#F1F1F1" height="50" rx="12.5" ry="12.5" style="stroke:#181818;stroke-width:0.5;" width="81.9814" x="63.08" y="87"/><line style="stroke:#181818;stroke-width:0.5;" x1="63.08" x2="145.0614" y1="113.2969" y2="113.2969"/><text fill="#000000" font-family="sans-serif" font-size="14" lengthAdjust="spacing" textLength="61.9814" x="73.08" y="104.9951">Anonimo</text></g><g id="Categoria"><rect fill="#F1F1F1" height="50" rx="12.5" ry="12.5" style="stroke:#181818;stroke-width:0.5;" width="88.1338" x="7" y="299"/><line style="stroke:#181818;stroke-width:0.5;" x1="7" x2="95.1338" y1="325.2969" y2="325.2969"/><text fill="#000000" font-family="sans-serif" font-size="14" lengthAdjust="spacing" textLength="68.1338" x="17" y="316.9951">Categoria</text></g><g id="Perfil"><rect fill="#F1F1F1" height="50" rx="12.5" ry="12.5" style="stroke:#181818;stroke-width:0.5;" width="55.5195" x="130.31" y="299"/><line style="stroke:#181818;stroke-width:0.5;" x1="130.31" x2="185.8295" y1="325.2969" y2="325.2969"/><text fill="#000000" font-family="sans-serif" font-size="14" lengthAdjust="spacing" textLength="35.5195" x="140.31" y="316.9951">Perfil</text></g><g id="Contenido"><rect fill="#F1F1F1" height="50" rx="12.5" ry="12.5" style="stroke:#181818;stroke-width:0.5;" width="91.5313" x="58.3" y="511"/><line style="stroke:#181818;stroke-width:0.5;" x1="58.3" x2="149.8313" y1="537.2969" y2="537.2969"/><text fill="#000000" font-family="sans-serif" font-size="14" lengthAdjust="spacing" textLength="71.5313" x="68.3" y="528.9951">Contenido</text></g><ellipse cx="104.07" cy="633" fill="none" rx="11" ry="11" style="stroke:#222222;stroke-width:1.0;"/><ellipse cx="104.07" cy="633" fill="#222222" rx="6" ry="6" style="stroke:#222222;stroke-width:1.0;"/><!--link *start* to Anonimo--><g id="link_*start*_Anonimo"><path d="M104.07,26.36 C104.07,40.29 104.07,60.95 104.07,80.65 " fill="none" id="*start*-to-Anonimo" style="stroke:#181818;stroke-width:1.0;"/><polygon fill="#181818" points="104.07,86.65,108.07,77.65,104.07,81.65,100.07,77.65,104.07,86.65" style="stroke:#181818;stroke-width:1.0;"/></g><!--link Anonimo to c1--><g id="link_Anonimo_c1"><path d="M104.07,137.3 C104.07,160.85 104.07,189.55 104.07,207.42 " fill="none" id="Anonimo-to-c1" style="stroke:#181818;stroke-width:1.0;"/><polygon fill="#181818" points="104.07,213.42,108.07,204.42,104.07,208.42,100.07,204.42,104.07,213.42" style="stroke:#181818;stroke-width:1.0;"/><text fill="#000000" font-family="sans-serif" font-size="13" lengthAdjust="spacing" textLength="44.3892" x="105.07" y="180.0669">Buscar</text></g><!--link c1 to Categoria--><g id="link_c1_Categoria"><path d="M99.91,234.53 C92.39,248.15 79.1397,272.1472 67.4697,293.2872 " fill="none" id="c1-to-Categoria" style="stroke:#181818;stroke-width:1.0;"/><polygon fill="#181818" points="64.57,298.54,72.4214,292.594,66.9864,294.1627,65.4177,288.7277,64.57,298.54" style="stroke:#181818;stroke-width:1.0;"/></g><!--link c1 to Perfil--><g id="link_c1_Perfil"><path d="M108.13,234.22 C115.73,247.73 129.4881,272.2007 141.4881,293.5307 " fill="none" id="c1-to-Perfil" style="stroke:#181818;stroke-width:1.0;"/><polygon fill="#181818" points="144.43,298.76,143.5033,288.9548,141.9784,294.4023,136.531,292.8774,144.43,298.76" style="stroke:#181818;stroke-width:1.0;"/></g><!--link Categoria to c2--><g id="link_Categoria_c2"><path d="M64.58,349.47 C76.36,370.81 89.7817,395.1164 97.2017,408.5664 " fill="none" id="Categoria-to-c2" style="stroke:#181818;stroke-width:1.0;"/><polygon fill="#181818" points="100.1,413.82,99.255,404.0075,97.6848,409.442,92.2502,407.8718,100.1,413.82" style="stroke:#181818;stroke-width:1.0;"/></g><!--link Perfil to c2--><g id="link_Perfil_c2"><path d="M144.3,349.47 C132.3,370.81 118.6129,395.1413 111.0429,408.5913 " fill="none" id="Perfil-to-c2" style="stroke:#181818;stroke-width:1.0;"/><polygon fill="#181818" points="108.1,413.82,116.0001,407.9388,110.5524,409.4627,109.0285,404.015,108.1,413.82" style="stroke:#181818;stroke-width:1.0;"/></g><!--link c2 to Contenido--><g id="link_c2_Contenido"><path d="M104.07,434.56 C104.07,452.45 104.07,481.21 104.07,504.77 " fill="none" id="c2-to-Contenido" style="stroke:#181818;stroke-width:1.0;"/><polygon fill="#181818" points="104.07,510.77,108.07,501.77,104.07,505.77,100.07,501.77,104.07,510.77" style="stroke:#181818;stroke-width:1.0;"/><text fill="#000000" font-family="sans-serif" font-size="13" lengthAdjust="spacing" textLength="52.6348" x="105.07" y="477.0669">Muestra</text></g><!--link Contenido to *end*--><g id="link_Contenido_*end*"><path d="M104.07,561.46 C104.07,581.04 104.07,601.49 104.07,615.8 " fill="none" id="Contenido-to-*end*" style="stroke:#181818;stroke-width:1.0;"/><polygon fill="#181818" points="104.07,621.8,108.07,612.8,104.07,616.8,100.07,612.8,104.07,621.8" style="stroke:#181818;stroke-width:1.0;"/></g><!--SRC=[Aov9B4bLI3PKiB59piZFJ4wri-CgXeWP8OjnHMl5AkZgsYauvkNdPURcSq5fi1XGkvM2KsbnSc8H5v0D4d866f6UNvIP21C8I2rAoypXWej3D1fnGSHXFA2bODtvUIMfUPaf-K1pVKjJYqkA4haGOY0LGES00000]--></g></svg>