<svg xmlns="http://www.w3.org/2000/svg" xmlns:xlink="http://www.w3.org/1999/xlink" contentStyleType="text/css" height="751px" preserveAspectRatio="none" style="width:304px;height:751px;background:#FFFFFF;" version="1.1" viewBox="0 0 304 751" width="304px" zoomAndPan="magnify"><title>Clasificaci&#243;n de Perfil por Edad</title><defs/><g><text fill="#000000" font-family="sans-serif" font-size="14" font-weight="bold" lengthAdjust="spacing" textLength="245.9297" x="22.1662" y="22.9951">Clasificaci&#243;n de Perfil por Edad</text><g id="elem_c1"><polygon fill="#F1F1F1" points="136.54,267.2969,148.54,279.2969,136.54,291.2969,124.54,279.2969,136.54,267.2969" style="stroke:#181818;stroke-width:0.5;"/></g><g id="elem_c2"><polygon fill="#F1F1F1" points="131.54,495.2969,143.54,507.2969,131.54,519.2969,119.54,507.2969,131.54,495.2969" style="stroke:#181818;stroke-width:0.5;"/></g><ellipse cx="136.54" cy="53.2969" fill="#222222" rx="10" ry="10" style="stroke:#222222;stroke-width:1;"/><g id="Perfil"><rect fill="#F1F1F1" height="50" rx="12.5" ry="12.5" style="stroke:#181818;stroke-width:0.5;" width="55.5195" x="108.78" y="140.2969"/><line style="stroke:#181818;stroke-width:0.5;" x1="108.78" x2="164.2995" y1="166.5938" y2="166.5938"/><text fill="#000000" font-family="sans-serif" font-size="14" lengthAdjust="spacing" textLength="35.5195" x="118.78" y="158.292">Perfil</text></g><g id="MenorEdad"><rect fill="#F1F1F1" height="50" rx="12.5" ry="12.5" style="stroke:#181818;stroke-width:0.5;" width="99.085" x="7" y="368.2969"/><line style="stroke:#181818;stroke-width:0.5;" x1="7" x2="106.085" y1="394.5938" y2="394.5938"/><text fill="#000000" font-family="sans-serif" font-size="14" lengthAdjust="spacing" textLength="79.085" x="17" y="386.292">MenorEdad</text></g><g id="MayorEdad"><rect fill="#F1F1F1" height="50" rx="12.5" ry="12.5" style="stroke:#181818;stroke-width:0.5;" width="98.4629" x="161.31" y="368.2969"/><line style="stroke:#181818;stroke-width:0.5;" x1="161.31" x2="259.7729" y1="394.5938" y2="394.5938"/><text fill="#000000" font-family="sans-serif" font-size="14" lengthAdjust="spacing" textLength="78.4629" x="171.31" y="386.292">MayorEdad</text></g><g id="contenido"><rect fill="#F1F1F1" height="50" rx="12.5" ry="12.5" style="stroke:#181818;stroke-width:0.5;" width="89.4531" x="86.82" y="596.2969"/><line style="stroke:#181818;stroke-width:0.5;" x1="86.82" x2="176.2731" y1="622.5938" y2="622.5938"/><text fill="#000000" font-family="sans-serif" font-size="14" lengthAdjust="spacing" textLength="69.4531" x="96.82" y="614.292">contenido</text></g><ellipse cx="131.54" cy="734.2969" fill="none" rx="11" ry="11" style="stroke:#222222;stroke-width:1;"/><ellipse cx="131.54" cy="734.2969" fill="#222222" rx="6" ry="6" style="stroke:#222222;stroke-width:1;"/><!--link *start* to Perfil--><g id="link_*start*_Perfil"><path d="M136.54,63.6769 C136.54,80.4069 136.54,109.8869 136.54,133.9269 " fill="none" id="*start*-to-Perfil" style="stroke:#181818;stroke-width:1;"/><polygon fill="#181818" points="136.54,139.9269,140.54,130.9269,136.54,134.9269,132.54,130.9269,136.54,139.9269" style="stroke:#181818;stroke-width:1;"/><text fill="#000000" font-family="sans-serif" font-size="13" lengthAdjust="spacing" textLength="48.4072" x="137.54" y="106.3638">Ingresa</text></g><!--link Perfil to c1--><g id="link_Perfil_c1"><path d="M136.54,190.5969 C136.54,214.1469 136.54,242.8469 136.54,260.7169 " fill="none" id="Perfil-to-c1" style="stroke:#181818;stroke-width:1;"/><polygon fill="#181818" points="136.54,266.7169,140.54,257.7169,136.54,261.7169,132.54,257.7169,136.54,266.7169" style="stroke:#181818;stroke-width:1;"/><text fill="#000000" font-family="sans-serif" font-size="13" lengthAdjust="spacing" textLength="96.9351" x="137.54" y="233.3638">Identifica edad</text></g><!--link c1 to MenorEdad--><g id="link_c1_MenorEdad"><path d="M127.25,282.5269 C111.2,286.9069 78.57,298.2969 63.54,321.2969 C54.6,334.9869 52.791,347.4412 53.351,362.1012 " fill="none" id="c1-to-MenorEdad" style="stroke:#181818;stroke-width:1;"/><polygon fill="#181818" points="53.58,368.0969,57.2335,358.9507,53.3891,363.1005,49.2394,359.2561,53.58,368.0969" style="stroke:#181818;stroke-width:1;"/><text fill="#000000" font-family="sans-serif" font-size="13" lengthAdjust="spacing" textLength="97.7349" x="64.54" y="334.3638">Menor de edad</text></g><!--link c1 to MayorEdad--><g id="link_c1_MayorEdad"><path d="M141.97,286.1469 C148.99,293.8669 161.42,308.0369 170.54,321.2969 C180.81,336.2169 188.0004,348.6653 195.4304,362.6853 " fill="none" id="c1-to-MayorEdad" style="stroke:#181818;stroke-width:1;"/><polygon fill="#181818" points="198.24,367.9869,197.56,358.1615,195.8987,363.5689,190.4913,361.9076,198.24,367.9869" style="stroke:#181818;stroke-width:1;"/><text fill="#000000" font-family="sans-serif" font-size="13" lengthAdjust="spacing" textLength="97.1572" x="182.54" y="334.3638">Mayor de edad</text></g><!--link MenorEdad to c2--><g id="link_MenorEdad_c2"><path d="M46.03,418.6769 C41.48,433.2269 38.92,451.4969 47.54,465.2969 C64.05,491.7269 97.142,500.5303 115.602,503.8003 " fill="none" id="MenorEdad-to-c2" style="stroke:#181818;stroke-width:1;"/><polygon fill="#181818" points="121.51,504.8469,113.3457,499.3384,116.5866,503.9748,111.9503,507.2157,121.51,504.8469" style="stroke:#181818;stroke-width:1;"/><text fill="#000000" font-family="sans-serif" font-size="13" lengthAdjust="spacing" textLength="120.5229" x="48.54" y="461.3638">Acceso restringido</text></g><!--link MayorEdad to c2--><g id="link_MayorEdad_c2"><path d="M200.15,418.7569 C193.55,432.9869 184.24,450.9069 173.54,465.2969 C162.73,479.8569 151.2757,490.1655 142.4757,497.4355 " fill="none" id="MayorEdad-to-c2" style="stroke:#181818;stroke-width:1;"/><polygon fill="#181818" points="137.85,501.2569,147.3361,498.6085,141.7047,498.0724,142.2409,492.441,137.85,501.2569" style="stroke:#181818;stroke-width:1;"/><text fill="#000000" font-family="sans-serif" font-size="13" lengthAdjust="spacing" textLength="110.7222" x="185.54" y="461.3638">Acceso completo</text></g><!--link c2 to contenido--><g id="link_c2_contenido"><path d="M131.54,519.8569 C131.54,537.7469 131.54,566.5069 131.54,590.0669 " fill="none" id="c2-to-contenido" style="stroke:#181818;stroke-width:1;"/><polygon fill="#181818" points="131.54,596.0669,135.54,587.0669,131.54,591.0669,127.54,587.0669,131.54,596.0669" style="stroke:#181818;stroke-width:1;"/><text fill="#000000" font-family="sans-serif" font-size="13" lengthAdjust="spacing" textLength="126.1216" x="132.54" y="562.3638">Visualiza contenido</text></g><!--link contenido to *end*--><g id="link_contenido_*end*"><path d="M131.54,646.6569 C131.54,670.5269 131.54,699.7569 131.54,717.0069 " fill="none" id="contenido-to-*end*" style="stroke:#181818;stroke-width:1;"/><polygon fill="#181818" points="131.54,723.0069,135.54,714.0069,131.54,718.0069,127.54,714.0069,131.54,723.0069" style="stroke:#181818;stroke-width:1;"/><text fill="#000000" font-family="sans-serif" font-size="13" lengthAdjust="spacing" textLength="19.3286" x="132.54" y="689.3638">Fin</text></g><!--SRC=[NO-n2i8m48RtFCNDGWSxIYc8A3W8JYxY499hFOYNaiH1Nyj7yCMy56lKxVZ-x_9V4YM7i78wKaT66te-62p27aD73WOVO6srLJ7fX63cq3JcxCbWsqwi_cRgE3j1LRNJ0mlOSXymQlK6EPDdX5laD9O2vWQ1ETiX-v0hHHddVCsFe6z5oFD7AAjZIIt2qXYC7kI058XxibwL_N_B-ClWC7abSCmy9sJP4UL0yQeTtNMXgkJPpXzVm8Ru1G00]--></g></svg>