<svg xmlns="http://www.w3.org/2000/svg" xmlns:xlink="http://www.w3.org/1999/xlink" contentStyleType="text/css" height="650px" preserveAspectRatio="none" style="width:262px;height:650px;background:#FFFFFF;" version="1.1" viewBox="0 0 262 650" width="262px" zoomAndPan="magnify"><defs/><g><g id="elem_c1"><polygon fill="#F1F1F1" points="122.54,214,134.54,226,122.54,238,110.54,226,122.54,214" style="stroke:#181818;stroke-width:0.5;"/></g><g id="elem_c2"><polygon fill="#F1F1F1" points="122.54,426,134.54,438,122.54,450,110.54,438,122.54,426" style="stroke:#181818;stroke-width:0.5;"/></g><ellipse cx="122.54" cy="16" fill="#222222" rx="10" ry="10" style="stroke:#222222;stroke-width:1.0;"/><g id="Perfil"><rect fill="#F1F1F1" height="50" rx="12.5" ry="12.5" style="stroke:#181818;stroke-width:0.5;" width="55.5195" x="94.78" y="87"/><line style="stroke:#181818;stroke-width:0.5;" x1="94.78" x2="150.2995" y1="113.2969" y2="113.2969"/><text fill="#000000" font-family="sans-serif" font-size="14" lengthAdjust="spacing" textLength="35.5195" x="104.78" y="104.9951">Perfil</text></g><g id="MenorEdad"><rect fill="#F1F1F1" height="50" rx="12.5" ry="12.5" style="stroke:#181818;stroke-width:0.5;" width="99.085" x="7" y="299"/><line style="stroke:#181818;stroke-width:0.5;" x1="7" x2="106.085" y1="325.2969" y2="325.2969"/><text fill="#000000" font-family="sans-serif" font-size="14" lengthAdjust="spacing" textLength="79.085" x="17" y="316.9951">MenorEdad</text></g><g id="MayorEdad"><rect fill="#F1F1F1" height="50" rx="12.5" ry="12.5" style="stroke:#181818;stroke-width:0.5;" width="98.4629" x="141.31" y="299"/><line style="stroke:#181818;stroke-width:0.5;" x1="141.31" x2="239.7729" y1="325.2969" y2="325.2969"/><text fill="#000000" font-family="sans-serif" font-size="14" lengthAdjust="spacing" textLength="78.4629" x="151.31" y="316.9951">MayorEdad</text></g><g id="contenido"><rect fill="#F1F1F1" height="50" rx="12.5" ry="12.5" style="stroke:#181818;stroke-width:0.5;" width="89.4531" x="77.82" y="511"/><line style="stroke:#181818;stroke-width:0.5;" x1="77.82" x2="167.2731" y1="537.2969" y2="537.2969"/><text fill="#000000" font-family="sans-serif" font-size="14" lengthAdjust="spacing" textLength="69.4531" x="87.82" y="528.9951">contenido</text></g><ellipse cx="122.54" cy="633" fill="none" rx="11" ry="11" style="stroke:#222222;stroke-width:1.0;"/><ellipse cx="122.54" cy="633" fill="#222222" rx="6" ry="6" style="stroke:#222222;stroke-width:1.0;"/><!--link *start* to Perfil--><g id="link_*start*_Perfil"><path d="M122.54,26.36 C122.54,40.29 122.54,60.95 122.54,80.65 " fill="none" id="*start*-to-Perfil" style="stroke:#181818;stroke-width:1.0;"/><polygon fill="#181818" points="122.54,86.65,126.54,77.65,122.54,81.65,118.54,77.65,122.54,86.65" style="stroke:#181818;stroke-width:1.0;"/></g><!--link Perfil to c1--><g id="link_Perfil_c1"><path d="M122.54,137.3 C122.54,160.85 122.54,189.55 122.54,207.42 " fill="none" id="Perfil-to-c1" style="stroke:#181818;stroke-width:1.0;"/><polygon fill="#181818" points="122.54,213.42,126.54,204.42,122.54,208.42,118.54,204.42,122.54,213.42" style="stroke:#181818;stroke-width:1.0;"/><text fill="#000000" font-family="sans-serif" font-size="13" lengthAdjust="spacing" textLength="14.9868" x="123.54" y="180.0669">Es</text></g><!--link c1 to MenorEdad--><g id="link_c1_MenorEdad"><path d="M117.8,233.9 C108.63,247.23 91.5096,272.136 76.7396,293.616 " fill="none" id="c1-to-MenorEdad" style="stroke:#181818;stroke-width:1.0;"/><polygon fill="#181818" points="73.34,298.56,81.7353,293.4104,76.173,294.44,75.1434,288.8776,73.34,298.56" style="stroke:#181818;stroke-width:1.0;"/></g><!--link c1 to MayorEdad--><g id="link_c1_MayorEdad"><path d="M127.22,233.6 C136.58,246.82 154.5823,272.2236 169.9223,293.8836 " fill="none" id="c1-to-MayorEdad" style="stroke:#181818;stroke-width:1.0;"/><polygon fill="#181818" points="173.39,298.78,171.4527,289.1236,170.5002,294.6997,164.9241,293.7472,173.39,298.78" style="stroke:#181818;stroke-width:1.0;"/></g><!--link MenorEdad to c2--><g id="link_MenorEdad_c2"><path d="M61.26,349.3 C64.79,363.65 70.58,381.74 79.54,396 C89.31,411.54 101.4576,421.7336 110.8876,428.6736 " fill="none" id="MenorEdad-to-c2" style="stroke:#181818;stroke-width:1.0;"/><polygon fill="#181818" points="115.72,432.23,110.8423,423.6738,111.693,429.2663,106.1005,430.117,115.72,432.23" style="stroke:#181818;stroke-width:1.0;"/><text fill="#000000" font-family="sans-serif" font-size="13" lengthAdjust="spacing" textLength="57.8589" x="80.54" y="392.0669">solo &lt;18</text></g><!--link MayorEdad to c2--><g id="link_MayorEdad_c2"><path d="M175.79,349.3 C160.16,375.04 139.5631,408.9608 129.9431,424.8108 " fill="none" id="MayorEdad-to-c2" style="stroke:#181818;stroke-width:1.0;"/><polygon fill="#181818" points="126.83,429.94,134.9191,424.3216,129.4243,425.6657,128.0802,420.1708,126.83,429.94" style="stroke:#181818;stroke-width:1.0;"/><text fill="#000000" font-family="sans-serif" font-size="13" lengthAdjust="spacing" textLength="97.0112" x="157.54" y="392.0669">cualquier edad</text></g><!--link c2 to contenido--><g id="link_c2_contenido"><path d="M122.54,450.39 C122.54,465.19 122.54,485.42 122.54,504.77 " fill="none" id="c2-to-contenido" style="stroke:#181818;stroke-width:1.0;"/><polygon fill="#181818" points="122.54,510.77,126.54,501.77,122.54,505.77,118.54,501.77,122.54,510.77" style="stroke:#181818;stroke-width:1.0;"/></g><!--link contenido to *end*--><g id="link_contenido_*end*"><path d="M122.54,561.46 C122.54,581.04 122.54,601.49 122.54,615.8 " fill="none" id="contenido-to-*end*" style="stroke:#181818;stroke-width:1.0;"/><polygon fill="#181818" points="122.54,621.8,126.54,612.8,122.54,616.8,118.54,612.8,122.54,621.8" style="stroke:#181818;stroke-width:1.0;"/></g><!--SRC=[Aov9B4bLI3PKiB59piZFJ4wri-CgXeWP8OjnHMl5AkZgsYa4f1QbPUPmGIYm252pbO9hCHUG1d5zK_FoYrnJ4bFW0ecLK06u54IV4L1VSNvEleADeGKNN1L2BhaqCQUmD3ErI24LR9mHH2e_hoGrBpCbdmlE0ei37GW0]--></g></svg>