<svg xmlns="http://www.w3.org/2000/svg" xmlns:xlink="http://www.w3.org/1999/xlink" contentStyleType="text/css" height="634px" preserveAspectRatio="none" style="width:284px;height:634px;background:#FFFFFF;" version="1.1" viewBox="0 0 284 634" width="284px" zoomAndPan="magnify"><defs/><g><g id="elem_c1"><polygon fill="#F1F1F1" points="135.7,198,147.7,210,135.7,222,123.7,210,135.7,198" style="stroke:#181818;stroke-width:0.5;"/></g><g id="elem_c2"><polygon fill="#F1F1F1" points="135.7,410,147.7,422,135.7,434,123.7,422,135.7,410" style="stroke:#181818;stroke-width:0.5;"/></g><ellipse cx="135.7" cy="16" fill="#222222" rx="10" ry="10" style="stroke:#222222;stroke-width:1.0;"/><g id="Contenido"><rect fill="#F1F1F1" height="50" rx="12.5" ry="12.5" style="stroke:#181818;stroke-width:0.5;" width="91.5313" x="89.94" y="87"/><line style="stroke:#181818;stroke-width:0.5;" x1="89.94" x2="181.4713" y1="113.2969" y2="113.2969"/><text fill="#000000" font-family="sans-serif" font-size="14" lengthAdjust="spacing" textLength="71.5313" x="99.94" y="104.9951">Contenido</text></g><g id="ConDerechos"><rect fill="#F1F1F1" height="50" rx="12.5" ry="12.5" style="stroke:#181818;stroke-width:0.5;" width="113.4063" x="7" y="283"/><line style="stroke:#181818;stroke-width:0.5;" x1="7" x2="120.4063" y1="309.2969" y2="309.2969"/><text fill="#000000" font-family="sans-serif" font-size="14" lengthAdjust="spacing" textLength="93.4063" x="17" y="300.9951">ConDerechos</text></g><g id="SinDerechos"><rect fill="#F1F1F1" height="50" rx="12.5" ry="12.5" style="stroke:#181818;stroke-width:0.5;" width="107.8418" x="155.78" y="283"/><line style="stroke:#181818;stroke-width:0.5;" x1="155.78" x2="263.6218" y1="309.2969" y2="309.2969"/><text fill="#000000" font-family="sans-serif" font-size="14" lengthAdjust="spacing" textLength="87.8418" x="165.78" y="300.9951">SinDerechos</text></g><g id="Perfil"><rect fill="#F1F1F1" height="50" rx="12.5" ry="12.5" style="stroke:#181818;stroke-width:0.5;" width="55.5195" x="107.94" y="495"/><line style="stroke:#181818;stroke-width:0.5;" x1="107.94" x2="163.4595" y1="521.2969" y2="521.2969"/><text fill="#000000" font-family="sans-serif" font-size="14" lengthAdjust="spacing" textLength="35.5195" x="117.94" y="512.9951">Perfil</text></g><ellipse cx="135.7" cy="617" fill="none" rx="11" ry="11" style="stroke:#222222;stroke-width:1.0;"/><ellipse cx="135.7" cy="617" fill="#222222" rx="6" ry="6" style="stroke:#222222;stroke-width:1.0;"/><!--link *start* to Contenido--><g id="link_*start*_Contenido"><path d="M135.7,26.36 C135.7,40.29 135.7,60.95 135.7,80.65 " fill="none" id="*start*-to-Contenido" style="stroke:#181818;stroke-width:1.0;"/><polygon fill="#181818" points="135.7,86.65,139.7,77.65,135.7,81.65,131.7,77.65,135.7,86.65" style="stroke:#181818;stroke-width:1.0;"/></g><!--link Contenido to c1--><g id="link_Contenido_c1"><path d="M135.7,137.47 C135.7,156.69 135.7,176.6 135.7,191.38 " fill="none" id="Contenido-to-c1" style="stroke:#181818;stroke-width:1.0;"/><polygon fill="#181818" points="135.7,197.38,139.7,188.38,135.7,192.38,131.7,188.38,135.7,197.38" style="stroke:#181818;stroke-width:1.0;"/></g><!--link c1 to ConDerechos--><g id="link_c1_ConDerechos"><path d="M130.75,217.6 C120.84,230.82 101.7093,256.3195 85.4693,277.9795 " fill="none" id="c1-to-ConDerechos" style="stroke:#181818;stroke-width:1.0;"/><polygon fill="#181818" points="81.87,282.78,90.4693,277.9787,84.8694,278.7796,84.0686,273.1797,81.87,282.78" style="stroke:#181818;stroke-width:1.0;"/></g><!--link c1 to SinDerechos--><g id="link_c1_SinDerechos"><path d="M140.79,217.6 C150.98,230.82 170.6764,256.3683 187.3764,278.0283 " fill="none" id="c1-to-SinDerechos" style="stroke:#181818;stroke-width:1.0;"/><polygon fill="#181818" points="191.04,282.78,188.7124,273.2101,187.987,278.8203,182.3769,278.0949,191.04,282.78" style="stroke:#181818;stroke-width:1.0;"/></g><!--link ConDerechos to c2--><g id="link_ConDerechos_c2"><path d="M64.49,333.36 C65.97,347.91 69.69,366.17 78.7,380 C90.95,398.79 109.5912,409.2378 122.1712,415.0378 " fill="none" id="ConDerechos-to-c2" style="stroke:#181818;stroke-width:1.0;"/><polygon fill="#181818" points="127.62,417.55,121.1216,410.1493,123.0794,415.4565,117.7721,417.4143,127.62,417.55" style="stroke:#181818;stroke-width:1.0;"/><text fill="#000000" font-family="sans-serif" font-size="13" lengthAdjust="spacing" textLength="79.9995" x="79.7" y="376.0669">remunerado</text></g><!--link SinDerechos to c2--><g id="link_SinDerechos_c2"><path d="M194.09,333.41 C185.26,347.15 173.95,364.59 163.7,380 C155.59,392.2 149.3137,401.3457 143.7237,409.4257 " fill="none" id="SinDerechos-to-c2" style="stroke:#181818;stroke-width:1.0;"/><polygon fill="#181818" points="140.31,414.36,148.72,409.2344,143.1547,410.2481,142.141,404.6828,140.31,414.36" style="stroke:#181818;stroke-width:1.0;"/><text fill="#000000" font-family="sans-serif" font-size="13" lengthAdjust="spacing" textLength="100.3247" x="175.7" y="376.0669">no remunerado</text></g><!--link c2 to Perfil--><g id="link_c2_Perfil"><path d="M135.7,434.39 C135.7,449.19 135.7,469.42 135.7,488.77 " fill="none" id="c2-to-Perfil" style="stroke:#181818;stroke-width:1.0;"/><polygon fill="#181818" points="135.7,494.77,139.7,485.77,135.7,489.77,131.7,485.77,135.7,494.77" style="stroke:#181818;stroke-width:1.0;"/></g><!--link Perfil to *end*--><g id="link_Perfil_*end*"><path d="M135.7,545.46 C135.7,565.04 135.7,585.49 135.7,599.8 " fill="none" id="Perfil-to-*end*" style="stroke:#181818;stroke-width:1.0;"/><polygon fill="#181818" points="135.7,605.8,139.7,596.8,135.7,600.8,131.7,596.8,135.7,605.8" style="stroke:#181818;stroke-width:1.0;"/></g><!--SRC=[Aov9B4bLI3PKiB59piZFJ4wri-CgXeWP8OjnHMl5AkZgsYauv-ULfEPbfkHpmLbWSQ0HN40CLUAIMfGAr5iC4mhEH0WXIKDq6YbOAHIbvfRcfHOb0ir5KekGpyj7LW8K0ia4f1QbPUPmGIYm2D2L0000]--></g></svg>