<svg xmlns="http://www.w3.org/2000/svg" xmlns:xlink="http://www.w3.org/1999/xlink" contentStyleType="text/css" height="751px" preserveAspectRatio="none" style="width:351px;height:751px;background:#FFFFFF;" version="1.1" viewBox="0 0 351 751" width="351px" zoomAndPan="magnify"><title>Flujo de Navegaci&#243;n de Usuario An&#243;nimo</title><defs/><g><text fill="#000000" font-family="sans-serif" font-size="14" font-weight="bold" lengthAdjust="spacing" textLength="323.9141" x="10" y="22.9951">Flujo de Navegaci&#243;n de Usuario An&#243;nimo</text><g id="elem_c1"><polygon fill="#F1F1F1" points="144.5905,267.2969,156.5905,279.2969,144.5905,291.2969,132.5905,279.2969,144.5905,267.2969" style="stroke:#181818;stroke-width:0.5;"/></g><g id="elem_c2"><polygon fill="#F1F1F1" points="144.5905,495.2969,156.5905,507.2969,144.5905,519.2969,132.5905,507.2969,144.5905,495.2969" style="stroke:#181818;stroke-width:0.5;"/></g><ellipse cx="144.5905" cy="53.2969" fill="#222222" rx="10" ry="10" style="stroke:#222222;stroke-width:1;"/><g id="Anonimo"><rect fill="#F1F1F1" height="50" rx="12.5" ry="12.5" style="stroke:#181818;stroke-width:0.5;" width="81.9814" x="103.6005" y="140.2969"/><line style="stroke:#181818;stroke-width:0.5;" x1="103.6005" x2="185.5819" y1="166.5938" y2="166.5938"/><text fill="#000000" font-family="sans-serif" font-size="14" lengthAdjust="spacing" textLength="61.9814" x="113.6005" y="158.292">Anonimo</text></g><g id="Categoria"><rect fill="#F1F1F1" height="50" rx="12.5" ry="12.5" style="stroke:#181818;stroke-width:0.5;" width="88.1338" x="47.5205" y="368.2969"/><line style="stroke:#181818;stroke-width:0.5;" x1="47.5205" x2="135.6543" y1="394.5938" y2="394.5938"/><text fill="#000000" font-family="sans-serif" font-size="14" lengthAdjust="spacing" textLength="68.1338" x="57.5205" y="386.292">Categoria</text></g><g id="Perfil"><rect fill="#F1F1F1" height="50" rx="12.5" ry="12.5" style="stroke:#181818;stroke-width:0.5;" width="55.5195" x="187.8305" y="368.2969"/><line style="stroke:#181818;stroke-width:0.5;" x1="187.8305" x2="243.35" y1="394.5938" y2="394.5938"/><text fill="#000000" font-family="sans-serif" font-size="14" lengthAdjust="spacing" textLength="35.5195" x="197.8305" y="386.292">Perfil</text></g><g id="Contenido"><rect fill="#F1F1F1" height="50" rx="12.5" ry="12.5" style="stroke:#181818;stroke-width:0.5;" width="91.5313" x="98.8205" y="596.2969"/><line style="stroke:#181818;stroke-width:0.5;" x1="98.8205" x2="190.3517" y1="622.5938" y2="622.5938"/><text fill="#000000" font-family="sans-serif" font-size="14" lengthAdjust="spacing" textLength="71.5313" x="108.8205" y="614.292">Contenido</text></g><ellipse cx="144.5905" cy="734.2969" fill="none" rx="11" ry="11" style="stroke:#222222;stroke-width:1;"/><ellipse cx="144.5905" cy="734.2969" fill="#222222" rx="6" ry="6" style="stroke:#222222;stroke-width:1;"/><!--link *start* to Anonimo--><g id="link_*start*_Anonimo"><path d="M144.5905,63.6769 C144.5905,80.4069 144.5905,109.8869 144.5905,133.9269 " fill="none" id="*start*-to-Anonimo" style="stroke:#181818;stroke-width:1;"/><polygon fill="#181818" points="144.5905,139.9269,148.5905,130.9269,144.5905,134.9269,140.5905,130.9269,144.5905,139.9269" style="stroke:#181818;stroke-width:1;"/><text fill="#000000" font-family="sans-serif" font-size="13" lengthAdjust="spacing" textLength="34.3979" x="145.5905" y="106.3638">Inicio</text></g><!--link Anonimo to c1--><g id="link_Anonimo_c1"><path d="M144.5905,190.5969 C144.5905,214.1469 144.5905,242.8469 144.5905,260.7169 " fill="none" id="Anonimo-to-c1" style="stroke:#181818;stroke-width:1;"/><polygon fill="#181818" points="144.5905,266.7169,148.5905,257.7169,144.5905,261.7169,140.5905,257.7169,144.5905,266.7169" style="stroke:#181818;stroke-width:1;"/><text fill="#000000" font-family="sans-serif" font-size="13" lengthAdjust="spacing" textLength="115.1147" x="145.5905" y="233.3638">Realiza b&#250;squeda</text></g><!--link c1 to Categoria--><g id="link_c1_Categoria"><path d="M134.0605,281.4169 C114.2405,284.1669 71.7405,293.2069 53.5905,321.2969 C43.8705,336.3269 49.4773,349.5114 61.4073,363.5014 " fill="none" id="c1-to-Categoria" style="stroke:#181818;stroke-width:1;"/><polygon fill="#181818" points="65.3005,368.0669,62.5043,358.6233,62.0562,364.2623,56.4171,363.8142,65.3005,368.0669" style="stroke:#181818;stroke-width:1;"/><text fill="#000000" font-family="sans-serif" font-size="13" lengthAdjust="spacing" textLength="135.3955" x="54.5905" y="334.3638">Selecciona categor&#237;a</text></g><!--link c1 to Perfil--><g id="link_c1_Perfil"><path d="M151.8705,284.3269 C162.7905,290.7269 183.2905,304.2769 194.5905,321.2969 C203.9005,335.3269 207.9913,347.7059 210.9213,362.1959 " fill="none" id="c1-to-Perfil" style="stroke:#181818;stroke-width:1;"/><polygon fill="#181818" points="212.1105,368.0769,214.2473,358.4626,211.1195,363.1761,206.406,360.0482,212.1105,368.0769" style="stroke:#181818;stroke-width:1;"/><text fill="#000000" font-family="sans-serif" font-size="13" lengthAdjust="spacing" textLength="107.4531" x="204.5905" y="334.3638">Selecciona perfil</text></g><!--link Categoria to c2--><g id="link_Categoria_c2"><path d="M87.8405,418.5369 C86.7605,432.8669 87.4205,450.9469 94.5905,465.2969 C103.7105,483.5769 119.8092,493.8341 131.4292,499.8341 " fill="none" id="Categoria-to-c2" style="stroke:#181818;stroke-width:1;"/><polygon fill="#181818" points="136.7605,502.5869,130.5988,494.9035,132.3178,500.2929,126.9284,502.0118,136.7605,502.5869" style="stroke:#181818;stroke-width:1;"/><text fill="#000000" font-family="sans-serif" font-size="13" lengthAdjust="spacing" textLength="57.4971" x="95.5905" y="461.3638">Visualiza</text></g><!--link Perfil to c2--><g id="link_Perfil_c2"><path d="M200.1805,418.5969 C183.8705,444.3369 162.3234,478.3196 152.2734,494.1696 " fill="none" id="Perfil-to-c2" style="stroke:#181818;stroke-width:1;"/><polygon fill="#181818" points="149.0605,499.2369,157.2581,493.778,151.7379,495.0142,150.5018,489.4941,149.0605,499.2369" style="stroke:#181818;stroke-width:1;"/><text fill="#000000" font-family="sans-serif" font-size="13" lengthAdjust="spacing" textLength="57.4971" x="181.5905" y="461.3638">Visualiza</text></g><!--link c2 to Contenido--><g id="link_c2_Contenido"><path d="M144.5905,519.8569 C144.5905,537.7469 144.5905,566.5069 144.5905,590.0669 " fill="none" id="c2-to-Contenido" style="stroke:#181818;stroke-width:1;"/><polygon fill="#181818" points="144.5905,596.0669,148.5905,587.0669,144.5905,591.0669,140.5905,587.0669,144.5905,596.0669" style="stroke:#181818;stroke-width:1;"/><text fill="#000000" font-family="sans-serif" font-size="13" lengthAdjust="spacing" textLength="121.2593" x="145.5905" y="562.3638">Muestra contenido</text></g><!--link Contenido to *end*--><g id="link_Contenido_*end*"><path d="M144.5905,646.6569 C144.5905,670.5269 144.5905,699.7569 144.5905,717.0069 " fill="none" id="Contenido-to-*end*" style="stroke:#181818;stroke-width:1;"/><polygon fill="#181818" points="144.5905,723.0069,148.5905,714.0069,144.5905,718.0069,140.5905,714.0069,144.5905,723.0069" style="stroke:#181818;stroke-width:1;"/><text fill="#000000" font-family="sans-serif" font-size="13" lengthAdjust="spacing" textLength="19.3286" x="145.5905" y="689.3638">Fin</text></g><!--SRC=[RO-z2i903CVtUuhCGWSTIoc8K71GHD557E8rQkIyq_Rgu3ivkRdsnSnLwmSuvlV_IEBP6uBCL7i7ES4OpxH5pVNDXd5ULbYmWxuLm0UdIe-UG7SXIVJEiQOqRLdlcwbbPmLHb4hIXI34CBIisQaM155wOfWI6huWhEjxUQeeHoKug0EftRg2KKmpCgGbRX7q4zVNjt52nORDh-lOCFNfQFRrnBHWUIfiLA_S7qN6vW9dFLdEm_cZYafVoFgMgOyQlE7X63As3m00]--></g></svg>