<svg xmlns="http://www.w3.org/2000/svg" xmlns:xlink="http://www.w3.org/1999/xlink" contentStyleType="text/css" height="904px" preserveAspectRatio="none" style="width:446px;height:904px;background:#FFFFFF;" version="1.1" viewBox="0 0 446 904" width="446px" zoomAndPan="magnify"><title>Gesti&#243;n de Sanciones por Incumplimiento de Normas</title><defs/><g><text fill="#000000" font-family="sans-serif" font-size="14" font-weight="bold" lengthAdjust="spacing" textLength="418.6396" x="10" y="22.9951">Gesti&#243;n de Sanciones por Incumplimiento de Normas</text><g id="elem_c1"><polygon fill="#F1F1F1" points="193.8367,521.2969,205.8367,533.2969,193.8367,545.2969,181.8367,533.2969,193.8367,521.2969" style="stroke:#181818;stroke-width:0.5;"/></g><ellipse cx="193.8367" cy="53.2969" fill="#222222" rx="10" ry="10" style="stroke:#222222;stroke-width:1;"/><g id="Perfil"><rect fill="#F1F1F1" height="50" rx="12.5" ry="12.5" style="stroke:#181818;stroke-width:0.5;" width="55.5195" x="166.0867" y="140.2969"/><line style="stroke:#181818;stroke-width:0.5;" x1="166.0867" x2="221.6062" y1="166.5938" y2="166.5938"/><text fill="#000000" font-family="sans-serif" font-size="14" lengthAdjust="spacing" textLength="35.5195" x="176.0867" y="158.292">Perfil</text></g><g id="Aviso"><rect fill="#F1F1F1" height="50" rx="12.5" ry="12.5" style="stroke:#181818;stroke-width:0.5;" width="57.6113" x="165.0367" y="267.2969"/><line style="stroke:#181818;stroke-width:0.5;" x1="165.0367" x2="222.648" y1="293.5938" y2="293.5938"/><text fill="#000000" font-family="sans-serif" font-size="14" lengthAdjust="spacing" textLength="37.6113" x="175.0367" y="285.292">Aviso</text></g><g id="Baneo"><rect fill="#F1F1F1" height="50" rx="12.5" ry="12.5" style="stroke:#181818;stroke-width:0.5;" width="64.2354" x="161.7267" y="394.2969"/><line style="stroke:#181818;stroke-width:0.5;" x1="161.7267" x2="225.962" y1="420.5938" y2="420.5938"/><text fill="#000000" font-family="sans-serif" font-size="14" lengthAdjust="spacing" textLength="44.2354" x="171.7267" y="412.292">Baneo</text></g><g id="AltaGravedad"><rect fill="#F1F1F1" height="50" rx="12.5" ry="12.5" style="stroke:#181818;stroke-width:0.5;" width="115.9697" x="59.8567" y="622.2969"/><line style="stroke:#181818;stroke-width:0.5;" x1="59.8567" x2="175.8264" y1="648.5938" y2="648.5938"/><text fill="#000000" font-family="sans-serif" font-size="14" lengthAdjust="spacing" textLength="95.9697" x="69.8567" y="640.292">AltaGravedad</text></g><g id="BajaGravedad"><rect fill="#F1F1F1" height="50" rx="12.5" ry="12.5" style="stroke:#181818;stroke-width:0.5;" width="119.0869" x="217.2967" y="622.2969"/><line style="stroke:#181818;stroke-width:0.5;" x1="217.2967" x2="336.3836" y1="648.5938" y2="648.5938"/><text fill="#000000" font-family="sans-serif" font-size="14" lengthAdjust="spacing" textLength="99.0869" x="227.2967" y="640.292">BajaGravedad</text></g><g id="Permanente"><rect fill="#F1F1F1" height="50" rx="12.5" ry="12.5" style="stroke:#181818;stroke-width:0.5;" width="105.4902" x="76.0967" y="749.2969"/><line style="stroke:#181818;stroke-width:0.5;" x1="76.0967" x2="181.5869" y1="775.5938" y2="775.5938"/><text fill="#000000" font-family="sans-serif" font-size="14" lengthAdjust="spacing" textLength="85.4902" x="86.0967" y="767.292">Permanente</text></g><g id="Temporal"><rect fill="#F1F1F1" height="50" rx="12.5" ry="12.5" style="stroke:#181818;stroke-width:0.5;" width="86.4795" x="228.6067" y="749.2969"/><line style="stroke:#181818;stroke-width:0.5;" x1="228.6067" x2="315.0862" y1="775.5938" y2="775.5938"/><text fill="#000000" font-family="sans-serif" font-size="14" lengthAdjust="spacing" textLength="66.4795" x="238.6067" y="767.292">Temporal</text></g><ellipse cx="193.8367" cy="887.2969" fill="none" rx="11" ry="11" style="stroke:#222222;stroke-width:1;"/><ellipse cx="193.8367" cy="887.2969" fill="#222222" rx="6" ry="6" style="stroke:#222222;stroke-width:1;"/><!--link *start* to Perfil--><g id="link_*start*_Perfil"><path d="M193.8367,63.6769 C193.8367,80.4069 193.8367,109.8869 193.8367,133.9269 " fill="none" id="*start*-to-Perfil" style="stroke:#181818;stroke-width:1;"/><polygon fill="#181818" points="193.8367,139.9269,197.8367,130.9269,193.8367,134.9269,189.8367,130.9269,193.8367,139.9269" style="stroke:#181818;stroke-width:1;"/><text fill="#000000" font-family="sans-serif" font-size="13" lengthAdjust="spacing" textLength="54.9136" x="194.8367" y="106.3638">Revisi&#243;n</text></g><!--link Perfil to Aviso--><g id="link_Perfil_Aviso"><path d="M193.8367,190.6969 C193.8367,212.7169 193.8367,238.9569 193.8367,260.9569 " fill="none" id="Perfil-to-Aviso" style="stroke:#181818;stroke-width:1;"/><polygon fill="#181818" points="193.8367,266.9569,197.8367,257.9569,193.8367,261.9569,189.8367,257.9569,193.8367,266.9569" style="stroke:#181818;stroke-width:1;"/><text fill="#000000" font-family="sans-serif" font-size="13" lengthAdjust="spacing" textLength="106.2852" x="194.8367" y="233.3638">Incumple norma</text></g><!--link Aviso to Baneo--><g id="link_Aviso_Baneo"><path d="M193.8367,317.6969 C193.8367,339.7169 193.8367,365.9569 193.8367,387.9569 " fill="none" id="Aviso-to-Baneo" style="stroke:#181818;stroke-width:1;"/><polygon fill="#181818" points="193.8367,393.9569,197.8367,384.9569,193.8367,388.9569,189.8367,384.9569,193.8367,393.9569" style="stroke:#181818;stroke-width:1;"/><text fill="#000000" font-family="sans-serif" font-size="13" lengthAdjust="spacing" textLength="69.126" x="194.8367" y="360.3638">Avisos &gt; 3</text></g><!--link Baneo to c1--><g id="link_Baneo_c1"><path d="M193.8367,444.5969 C193.8367,468.1469 193.8367,496.8469 193.8367,514.7169 " fill="none" id="Baneo-to-c1" style="stroke:#181818;stroke-width:1;"/><polygon fill="#181818" points="193.8367,520.7169,197.8367,511.7169,193.8367,515.7169,189.8367,511.7169,193.8367,520.7169" style="stroke:#181818;stroke-width:1;"/><text fill="#000000" font-family="sans-serif" font-size="13" lengthAdjust="spacing" textLength="120.1992" x="194.8367" y="487.3638">Clasifica gravedad</text></g><!--link c1 to AltaGravedad--><g id="link_c1_AltaGravedad"><path d="M185.6267,537.4069 C172.3067,542.8969 146.1167,555.6269 132.8367,575.2969 C123.6067,588.9769 120.4783,601.2751 119.0583,615.8551 " fill="none" id="c1-to-AltaGravedad" style="stroke:#181818;stroke-width:1;"/><polygon fill="#181818" points="118.4767,621.8269,123.3303,613.257,118.9614,616.8504,115.3679,612.4815,118.4767,621.8269" style="stroke:#181818;stroke-width:1;"/><text fill="#000000" font-family="sans-serif" font-size="13" lengthAdjust="spacing" textLength="91.4253" x="133.8367" y="588.3638">Alta gravedad</text></g><!--link c1 to BajaGravedad--><g id="link_c1_BajaGravedad"><path d="M199.4767,540.1869 C206.7967,547.9669 219.8367,562.2069 229.8367,575.2969 C241.3367,590.3269 249.8739,603.0095 258.7439,616.9995 " fill="none" id="c1-to-BajaGravedad" style="stroke:#181818;stroke-width:1;"/><polygon fill="#181818" points="261.9567,622.0669,260.5157,612.324,259.2793,617.8441,253.7592,616.6078,261.9567,622.0669" style="stroke:#181818;stroke-width:1;"/><text fill="#000000" font-family="sans-serif" font-size="13" lengthAdjust="spacing" textLength="94.3198" x="243.8367" y="588.3638">Baja gravedad</text></g><!--link AltaGravedad to Permanente--><g id="link_AltaGravedad_Permanente"><path d="M119.9867,672.6969 C121.9267,694.7169 124.2423,720.9798 126.1723,742.9798 " fill="none" id="AltaGravedad-to-Permanente" style="stroke:#181818;stroke-width:1;"/><polygon fill="#181818" points="126.6967,748.9569,129.8949,739.6417,126.2597,743.976,121.9255,740.3409,126.6967,748.9569" style="stroke:#181818;stroke-width:1;"/><text fill="#000000" font-family="sans-serif" font-size="13" lengthAdjust="spacing" textLength="136.8555" x="125.8367" y="715.3638">Bloqueo permanente</text></g><!--link BajaGravedad to Temporal--><g id="link_BajaGravedad_Temporal"><path d="M275.8667,672.6969 C274.9867,694.7169 273.9365,720.9617 273.0565,742.9617 " fill="none" id="BajaGravedad-to-Temporal" style="stroke:#181818;stroke-width:1;"/><polygon fill="#181818" points="272.8167,748.9569,277.1732,740.1239,273.0165,743.9609,269.1796,739.8042,272.8167,748.9569" style="stroke:#181818;stroke-width:1;"/><text fill="#000000" font-family="sans-serif" font-size="13" lengthAdjust="spacing" textLength="115.9463" x="275.8367" y="715.3638">Bloqueo temporal</text></g><!--link Permanente to *end*--><g id="link_Permanente_*end*"><path d="M143.1067,799.6569 C157.4567,824.1669 175.7836,855.4699 185.5736,872.1799 " fill="none" id="Permanente-to-*end*" style="stroke:#181818;stroke-width:1;"/><polygon fill="#181818" points="188.6067,877.3569,187.5084,867.5694,186.0791,873.0428,180.6058,871.6135,188.6067,877.3569" style="stroke:#181818;stroke-width:1;"/><text fill="#000000" font-family="sans-serif" font-size="13" lengthAdjust="spacing" textLength="19.3286" x="170.8367" y="842.3638">Fin</text></g><!--link Temporal to *end*--><g id="link_Temporal_*end*"><path d="M254.7267,799.6569 C237.4167,824.2869 215.0448,856.1166 203.3948,872.7066 " fill="none" id="Temporal-to-*end*" style="stroke:#181818;stroke-width:1;"/><polygon fill="#181818" points="199.9467,877.6169,208.3924,872.5503,202.8201,873.525,201.8454,867.9528,199.9467,877.6169" style="stroke:#181818;stroke-width:1;"/><text fill="#000000" font-family="sans-serif" font-size="13" lengthAdjust="spacing" textLength="19.3286" x="233.8367" y="842.3638">Fin</text></g><!--SRC=[PP2nJWCn38PtFuLdf0w8xLITH96eM2e4R8Z1ohbWb3Z79UsByGYy67ORbJin-lFdtt6grCYuvLBbvrjnO7mc3PAL2uvvmWSDXpH6IS9Qi_TtUKfK04gboXYkSRqE7ra2zpt0wzKRhbOzFlAqbuWTFl5HYaT3GzwzDPQjsS8PrJFXZ5tOaB8B9rAmnniu8s_QoWxl8XNPIo1yd-Z80mrW_1GUAsqRymWh_paR-fmxNluvYu1sJBBjQkUQ6_FNmLuoNY0iqdpWXPFz7SMPNXk2MPYh_c4Ttel2PMY1Vm40]--></g></svg>