<svg xmlns="http://www.w3.org/2000/svg" xmlns:xlink="http://www.w3.org/1999/xlink" contentStyleType="text/css" height="624px" preserveAspectRatio="none" style="width:412px;height:624px;background:#FFFFFF;" version="1.1" viewBox="0 0 412 624" width="412px" zoomAndPan="magnify"><title>Gesti&#243;n de Contenido por Derechos</title><defs/><g><text fill="#000000" font-family="sans-serif" font-size="14" font-weight="bold" lengthAdjust="spacing" textLength="280.1367" x="59.2211" y="22.9951">Gesti&#243;n de Contenido por Derechos</text><g id="elem_c1"><polygon fill="#F1F1F1" points="159.7,267.2969,171.7,279.2969,159.7,291.2969,147.7,279.2969,159.7,267.2969" style="stroke:#181818;stroke-width:0.5;"/></g><g id="elem_c2"><polygon fill="#F1F1F1" points="161.7,495.2969,173.7,507.2969,161.7,519.2969,149.7,507.2969,161.7,495.2969" style="stroke:#181818;stroke-width:0.5;"/></g><ellipse cx="159.7" cy="53.2969" fill="#222222" rx="10" ry="10" style="stroke:#222222;stroke-width:1;"/><g id="Contenido"><rect fill="#F1F1F1" height="50" rx="12.5" ry="12.5" style="stroke:#181818;stroke-width:0.5;" width="91.5313" x="113.94" y="140.2969"/><line style="stroke:#181818;stroke-width:0.5;" x1="113.94" x2="205.4713" y1="166.5938" y2="166.5938"/><text fill="#000000" font-family="sans-serif" font-size="14" lengthAdjust="spacing" textLength="71.5313" x="123.94" y="158.292">Contenido</text></g><g id="ConDerechos"><rect fill="#F1F1F1" height="50" rx="12.5" ry="12.5" style="stroke:#181818;stroke-width:0.5;" width="113.4063" x="7" y="368.2969"/><line style="stroke:#181818;stroke-width:0.5;" x1="7" x2="120.4063" y1="394.5938" y2="394.5938"/><text fill="#000000" font-family="sans-serif" font-size="14" lengthAdjust="spacing" textLength="93.4063" x="17" y="386.292">ConDerechos</text></g><g id="SinDerechos"><rect fill="#F1F1F1" height="50" rx="12.5" ry="12.5" style="stroke:#181818;stroke-width:0.5;" width="107.8418" x="204.78" y="368.2969"/><line style="stroke:#181818;stroke-width:0.5;" x1="204.78" x2="312.6218" y1="394.5938" y2="394.5938"/><text fill="#000000" font-family="sans-serif" font-size="14" lengthAdjust="spacing" textLength="87.8418" x="214.78" y="386.292">SinDerechos</text></g><ellipse cx="161.7" cy="607.2969" fill="none" rx="11" ry="11" style="stroke:#222222;stroke-width:1;"/><ellipse cx="161.7" cy="607.2969" fill="#222222" rx="6" ry="6" style="stroke:#222222;stroke-width:1;"/><!--link *start* to Contenido--><g id="link_*start*_Contenido"><path d="M159.7,63.6769 C159.7,80.4069 159.7,109.8869 159.7,133.9269 " fill="none" id="*start*-to-Contenido" style="stroke:#181818;stroke-width:1;"/><polygon fill="#181818" points="159.7,139.9269,163.7,130.9269,159.7,134.9269,155.7,130.9269,159.7,139.9269" style="stroke:#181818;stroke-width:1;"/><text fill="#000000" font-family="sans-serif" font-size="13" lengthAdjust="spacing" textLength="34.3979" x="160.7" y="106.3638">Inicio</text></g><!--link Contenido to c1--><g id="link_Contenido_c1"><path d="M159.7,190.5969 C159.7,214.1469 159.7,242.8469 159.7,260.7169 " fill="none" id="Contenido-to-c1" style="stroke:#181818;stroke-width:1;"/><polygon fill="#181818" points="159.7,266.7169,163.7,257.7169,159.7,261.7169,155.7,257.7169,159.7,266.7169" style="stroke:#181818;stroke-width:1;"/><text fill="#000000" font-family="sans-serif" font-size="13" lengthAdjust="spacing" textLength="118.1807" x="160.7" y="233.3638">Clasifica derechos</text></g><!--link c1 to ConDerechos--><g id="link_c1_ConDerechos"><path d="M148.64,280.9169 C126.82,282.8169 78.54,290.4569 57.7,321.2969 C48.56,334.8269 48.8766,347.4841 52.8466,362.1941 " fill="none" id="c1-to-ConDerechos" style="stroke:#181818;stroke-width:1;"/><polygon fill="#181818" points="54.41,367.9869,55.9268,358.2555,53.1072,363.1596,48.2031,360.34,54.41,367.9869" style="stroke:#181818;stroke-width:1;"/><text fill="#000000" font-family="sans-serif" font-size="13" lengthAdjust="spacing" textLength="157.7329" x="58.7" y="334.3638">Contenido con derechos</text></g><!--link c1 to SinDerechos--><g id="link_c1_SinDerechos"><path d="M167.32,283.8669 C179.8,290.0269 204.78,303.6969 220.7,321.2969 C233.08,334.9869 240.3649,347.9532 246.8749,362.6132 " fill="none" id="c1-to-SinDerechos" style="stroke:#181818;stroke-width:1;"/><polygon fill="#181818" points="249.31,368.0969,249.3131,358.248,247.2808,363.5272,242.0016,361.4948,249.31,368.0969" style="stroke:#181818;stroke-width:1;"/><text fill="#000000" font-family="sans-serif" font-size="13" lengthAdjust="spacing" textLength="153.0166" x="233.7" y="334.3638">Contenido sin derechos</text></g><!--link ConDerechos to c2--><g id="link_ConDerechos_c2"><path d="M55.37,418.6269 C51.93,433.3369 50.58,451.7969 59.7,465.2969 C80.54,496.1369 122.8426,503.2564 144.6626,505.1564 " fill="none" id="ConDerechos-to-c2" style="stroke:#181818;stroke-width:1;"/><polygon fill="#181818" points="150.64,505.6769,142.0209,500.9112,145.6588,505.2431,141.3269,508.8811,150.64,505.6769" style="stroke:#181818;stroke-width:1;"/><text fill="#000000" font-family="sans-serif" font-size="13" lengthAdjust="spacing" textLength="150.5537" x="60.7" y="461.3638">Contenido remunerado</text></g><!--link SinDerechos to c2--><g id="link_SinDerechos_c2"><path d="M248.67,418.7169 C241.9,433.2869 231.97,451.5569 219.7,465.2969 C204.59,482.2169 186.5264,493.1589 174.5864,499.5689 " fill="none" id="SinDerechos-to-c2" style="stroke:#181818;stroke-width:1;"/><polygon fill="#181818" points="169.3,502.4069,179.1216,501.6741,173.7053,500.0419,175.3376,494.6256,169.3,502.4069" style="stroke:#181818;stroke-width:1;"/><text fill="#000000" font-family="sans-serif" font-size="13" lengthAdjust="spacing" textLength="170.8789" x="233.7" y="461.3638">Contenido no remunerado</text></g><!--link c2 to *end*--><g id="link_c2_*end*"><path d="M161.7,519.9269 C161.7,539.1869 161.7,571.4369 161.7,589.8769 " fill="none" id="c2-to-*end*" style="stroke:#181818;stroke-width:1;"/><polygon fill="#181818" points="161.7,595.8769,165.7,586.8769,161.7,590.8769,157.7,586.8769,161.7,595.8769" style="stroke:#181818;stroke-width:1;"/><text fill="#000000" font-family="sans-serif" font-size="13" lengthAdjust="spacing" textLength="19.3286" x="162.7" y="562.3638">Fin</text></g><!--SRC=[ROyn3i8m34NtdC8pKWSwHbMM8X0p8sA84YCi5HibwSau0XSZGIsaegEVd_-N4wK1uO0nqUl9u15wuOHCNk0X0NOOqDqagfXiGd1RwBeyaqDZPjRMJ9qt5sWQK-LeE38v4lL3HSXP6lh1HhgIixbwQifykf_BY_SzTS9_xedMtKYLMmT- -jk56_0-CWRhHTLnAoOlvBmiJdbRmvxu3G00]--></g></svg>