<svg xmlns="http://www.w3.org/2000/svg" xmlns:xlink="http://www.w3.org/1999/xlink" contentStyleType="text/css" height="787px" preserveAspectRatio="none" style="width:284px;height:787px;background:#FFFFFF;" version="1.1" viewBox="0 0 284 787" width="284px" zoomAndPan="magnify"><defs/><g><g id="elem_c1"><polygon fill="#F1F1F1" points="140.98,452,152.98,464,140.98,476,128.98,464,140.98,452" style="stroke:#181818;stroke-width:0.5;"/></g><ellipse cx="140.98" cy="16" fill="#222222" rx="10" ry="10" style="stroke:#222222;stroke-width:1.0;"/><g id="Perfil"><rect fill="#F1F1F1" height="50" rx="12.5" ry="12.5" style="stroke:#181818;stroke-width:0.5;" width="55.5195" x="113.23" y="87"/><line style="stroke:#181818;stroke-width:0.5;" x1="113.23" x2="168.7495" y1="113.2969" y2="113.2969"/><text fill="#000000" font-family="sans-serif" font-size="14" lengthAdjust="spacing" textLength="35.5195" x="123.23" y="104.9951">Perfil</text></g><g id="Aviso"><rect fill="#F1F1F1" height="50" rx="12.5" ry="12.5" style="stroke:#181818;stroke-width:0.5;" width="57.6113" x="112.18" y="214"/><line style="stroke:#181818;stroke-width:0.5;" x1="112.18" x2="169.7913" y1="240.2969" y2="240.2969"/><text fill="#000000" font-family="sans-serif" font-size="14" lengthAdjust="spacing" textLength="37.6113" x="122.18" y="231.9951">Aviso</text></g><g id="Baneo"><rect fill="#F1F1F1" height="50" rx="12.5" ry="12.5" style="stroke:#181818;stroke-width:0.5;" width="64.2354" x="108.87" y="341"/><line style="stroke:#181818;stroke-width:0.5;" x1="108.87" x2="173.1054" y1="367.2969" y2="367.2969"/><text fill="#000000" font-family="sans-serif" font-size="14" lengthAdjust="spacing" textLength="44.2354" x="118.87" y="358.9951">Baneo</text></g><g id="AltaGravedad"><rect fill="#F1F1F1" height="50" rx="12.5" ry="12.5" style="stroke:#181818;stroke-width:0.5;" width="115.9697" x="7" y="537"/><line style="stroke:#181818;stroke-width:0.5;" x1="7" x2="122.9697" y1="563.2969" y2="563.2969"/><text fill="#000000" font-family="sans-serif" font-size="14" lengthAdjust="spacing" textLength="95.9697" x="17" y="554.9951">AltaGravedad</text></g><g id="BajaGravedad"><rect fill="#F1F1F1" height="50" rx="12.5" ry="12.5" style="stroke:#181818;stroke-width:0.5;" width="119.0869" x="158.44" y="537"/><line style="stroke:#181818;stroke-width:0.5;" x1="158.44" x2="277.5269" y1="563.2969" y2="563.2969"/><text fill="#000000" font-family="sans-serif" font-size="14" lengthAdjust="spacing" textLength="99.0869" x="168.44" y="554.9951">BajaGravedad</text></g><g id="Permanente"><rect fill="#F1F1F1" height="50" rx="12.5" ry="12.5" style="stroke:#181818;stroke-width:0.5;" width="105.4902" x="28.24" y="648"/><line style="stroke:#181818;stroke-width:0.5;" x1="28.24" x2="133.7302" y1="674.2969" y2="674.2969"/><text fill="#000000" font-family="sans-serif" font-size="14" lengthAdjust="spacing" textLength="85.4902" x="38.24" y="665.9951">Permanente</text></g><g id="Temporal"><rect fill="#F1F1F1" height="50" rx="12.5" ry="12.5" style="stroke:#181818;stroke-width:0.5;" width="86.4795" x="171.75" y="648"/><line style="stroke:#181818;stroke-width:0.5;" x1="171.75" x2="258.2295" y1="674.2969" y2="674.2969"/><text fill="#000000" font-family="sans-serif" font-size="14" lengthAdjust="spacing" textLength="66.4795" x="181.75" y="665.9951">Temporal</text></g><ellipse cx="145.98" cy="770" fill="none" rx="11" ry="11" style="stroke:#222222;stroke-width:1.0;"/><ellipse cx="145.98" cy="770" fill="#222222" rx="6" ry="6" style="stroke:#222222;stroke-width:1.0;"/><!--link *start* to Perfil--><g id="link_*start*_Perfil"><path d="M140.98,26.36 C140.98,40.29 140.98,60.95 140.98,80.65 " fill="none" id="*start*-to-Perfil" style="stroke:#181818;stroke-width:1.0;"/><polygon fill="#181818" points="140.98,86.65,144.98,77.65,140.98,81.65,136.98,77.65,140.98,86.65" style="stroke:#181818;stroke-width:1.0;"/></g><!--link Perfil to Aviso--><g id="link_Perfil_Aviso"><path d="M140.98,137.4 C140.98,159.42 140.98,185.66 140.98,207.66 " fill="none" id="Perfil-to-Aviso" style="stroke:#181818;stroke-width:1.0;"/><polygon fill="#181818" points="140.98,213.66,144.98,204.66,140.98,208.66,136.98,204.66,140.98,213.66" style="stroke:#181818;stroke-width:1.0;"/><text fill="#000000" font-family="sans-serif" font-size="13" lengthAdjust="spacing" textLength="106.063" x="141.98" y="180.0669">incumple norma</text></g><!--link Aviso to Baneo--><g id="link_Aviso_Baneo"><path d="M140.98,264.4 C140.98,286.42 140.98,312.66 140.98,334.66 " fill="none" id="Aviso-to-Baneo" style="stroke:#181818;stroke-width:1.0;"/><polygon fill="#181818" points="140.98,340.66,144.98,331.66,140.98,335.66,136.98,331.66,140.98,340.66" style="stroke:#181818;stroke-width:1.0;"/><text fill="#000000" font-family="sans-serif" font-size="13" lengthAdjust="spacing" textLength="69.6147" x="141.98" y="307.0669">if aviso &gt;3</text></g><!--link Baneo to c1--><g id="link_Baneo_c1"><path d="M140.98,391.47 C140.98,410.69 140.98,430.6 140.98,445.38 " fill="none" id="Baneo-to-c1" style="stroke:#181818;stroke-width:1.0;"/><polygon fill="#181818" points="140.98,451.38,144.98,442.38,140.98,446.38,136.98,442.38,140.98,451.38" style="stroke:#181818;stroke-width:1.0;"/></g><!--link c1 to AltaGravedad--><g id="link_c1_AltaGravedad"><path d="M136,471.3 C125.7,484.31 105.3047,510.0761 88.0347,531.8861 " fill="none" id="c1-to-AltaGravedad" style="stroke:#181818;stroke-width:1.0;"/><polygon fill="#181818" points="84.31,536.59,93.033,532.0173,87.4139,532.6701,86.7612,527.051,84.31,536.59" style="stroke:#181818;stroke-width:1.0;"/></g><!--link c1 to BajaGravedad--><g id="link_c1_BajaGravedad"><path d="M146.04,471.3 C156.48,484.31 177.155,510.1002 194.655,531.9102 " fill="none" id="c1-to-BajaGravedad" style="stroke:#181818;stroke-width:1.0;"/><polygon fill="#181818" points="198.41,536.59,195.8974,527.067,195.2809,532.6902,189.6577,532.0737,198.41,536.59" style="stroke:#181818;stroke-width:1.0;"/></g><!--link AltaGravedad to Permanente--><g id="link_AltaGravedad_Permanente"><path d="M68.58,587.46 C71.21,605.41 73.896,623.754 76.536,641.684 " fill="none" id="AltaGravedad-to-Permanente" style="stroke:#181818;stroke-width:1.0;"/><polygon fill="#181818" points="77.41,647.62,80.0563,638.1333,76.6817,642.6733,72.1416,639.2987,77.41,647.62" style="stroke:#181818;stroke-width:1.0;"/></g><!--link BajaGravedad to Temporal--><g id="link_BajaGravedad_Temporal"><path d="M217.31,587.46 C216.82,605.41 216.3139,623.6922 215.8239,641.6222 " fill="none" id="BajaGravedad-to-Temporal" style="stroke:#181818;stroke-width:1.0;"/><polygon fill="#181818" points="215.66,647.62,219.9044,638.7326,215.7966,642.6219,211.9074,638.5141,215.66,647.62" style="stroke:#181818;stroke-width:1.0;"/></g><!--link Permanente to *end*--><g id="link_Permanente_*end*"><path d="M97.72,698.46 C111.72,718.92 127.4623,741.9279 136.8823,755.6979 " fill="none" id="Permanente-to-*end*" style="stroke:#181818;stroke-width:1.0;"/><polygon fill="#181818" points="140.27,760.65,138.4898,750.9634,137.4469,756.5232,131.887,755.4803,140.27,760.65" style="stroke:#181818;stroke-width:1.0;"/></g><!--link Temporal to *end*--><g id="link_Temporal_*end*"><path d="M197.22,698.46 C182.36,718.92 165.5757,742.0251 155.5757,755.7951 " fill="none" id="Temporal-to-*end*" style="stroke:#181818;stroke-width:1.0;"/><polygon fill="#181818" points="152.05,760.65,160.5751,755.7182,154.9881,756.6043,154.1019,751.0173,152.05,760.65" style="stroke:#181818;stroke-width:1.0;"/></g><!--SRC=[JO-x2iCm34LtVONcGeRGhGH3itJjqArq48v2NVm8ZfFlhotND9FWtCELj2PAZBh7OT3lO3Gh1V0ylR3h5DuvpiP27KAkkra3Nj1ulRd5CleG7K75HHZ9imWpaa1rXifAgdl8gwJ89hf5sdcYgR6HFdzs52GjrxZSv1F3qPJmmMu9aUJMdoGyVm8jQ-0B]--></g></svg>