<svg xmlns="http://www.w3.org/2000/svg" xmlns:xlink="http://www.w3.org/1999/xlink" contentStyleType="text/css" height="650px" preserveAspectRatio="none" style="width:201px;height:650px;background:#FFFFFF;" version="1.1" viewBox="0 0 201 650" width="201px" zoomAndPan="magnify"><defs/><g><g id="elem_c1"><polygon fill="#F1F1F1" points="106.07,214,118.07,226,106.07,238,94.07,226,106.07,214" style="stroke:#181818;stroke-width:0.5;"/></g><g id="elem_c2"><polygon fill="#F1F1F1" points="106.07,410,118.07,422,106.07,434,94.07,422,106.07,410" style="stroke:#181818;stroke-width:0.5;"/></g><ellipse cx="106.07" cy="16" fill="#222222" rx="10" ry="10" style="stroke:#222222;stroke-width:1.0;"/><g id="Perfil"><rect fill="#F1F1F1" height="50" rx="12.5" ry="12.5" style="stroke:#181818;stroke-width:0.5;" width="55.5195" x="78.31" y="87"/><line style="stroke:#181818;stroke-width:0.5;" x1="78.31" x2="133.8295" y1="113.2969" y2="113.2969"/><text fill="#000000" font-family="sans-serif" font-size="14" lengthAdjust="spacing" textLength="35.5195" x="88.31" y="104.9951">Perfil</text></g><g id="Categoria"><rect fill="#F1F1F1" height="50" rx="12.5" ry="12.5" style="stroke:#181818;stroke-width:0.5;" width="88.1338" x="7" y="299"/><line style="stroke:#181818;stroke-width:0.5;" x1="7" x2="95.1338" y1="325.2969" y2="325.2969"/><text fill="#000000" font-family="sans-serif" font-size="14" lengthAdjust="spacing" textLength="68.1338" x="17" y="316.9951">Categoria</text></g><g id="Perfil1"><rect fill="#F1F1F1" height="50" rx="12.5" ry="12.5" style="stroke:#181818;stroke-width:0.5;" width="64.4268" x="129.85" y="299"/><line style="stroke:#181818;stroke-width:0.5;" x1="129.85" x2="194.2768" y1="325.2969" y2="325.2969"/><text fill="#000000" font-family="sans-serif" font-size="14" lengthAdjust="spacing" textLength="44.4268" x="139.85" y="316.9951">Perfil1</text></g><g id="Contenido"><rect fill="#F1F1F1" height="50" rx="12.5" ry="12.5" style="stroke:#181818;stroke-width:0.5;" width="91.5313" x="60.3" y="511"/><line style="stroke:#181818;stroke-width:0.5;" x1="60.3" x2="151.8313" y1="537.2969" y2="537.2969"/><text fill="#000000" font-family="sans-serif" font-size="14" lengthAdjust="spacing" textLength="71.5313" x="70.3" y="528.9951">Contenido</text></g><ellipse cx="106.07" cy="633" fill="none" rx="11" ry="11" style="stroke:#222222;stroke-width:1.0;"/><ellipse cx="106.07" cy="633" fill="#222222" rx="6" ry="6" style="stroke:#222222;stroke-width:1.0;"/><!--link *start* to Perfil--><g id="link_*start*_Perfil"><path d="M106.07,26.36 C106.07,40.29 106.07,60.95 106.07,80.65 " fill="none" id="*start*-to-Perfil" style="stroke:#181818;stroke-width:1.0;"/><polygon fill="#181818" points="106.07,86.65,110.07,77.65,106.07,81.65,102.07,77.65,106.07,86.65" style="stroke:#181818;stroke-width:1.0;"/></g><!--link Perfil to c1--><g id="link_Perfil_c1"><path d="M106.07,137.3 C106.07,160.85 106.07,189.55 106.07,207.42 " fill="none" id="Perfil-to-c1" style="stroke:#181818;stroke-width:1.0;"/><polygon fill="#181818" points="106.07,213.42,110.07,204.42,106.07,208.42,102.07,204.42,106.07,213.42" style="stroke:#181818;stroke-width:1.0;"/><text fill="#000000" font-family="sans-serif" font-size="13" lengthAdjust="spacing" textLength="41.6978" x="107.07" y="180.0669">Seguir</text></g><!--link c1 to Categoria--><g id="link_c1_Categoria"><path d="M101.93,234.22 C94.19,247.73 80.1508,272.2228 67.9408,293.5528 " fill="none" id="c1-to-Categoria" style="stroke:#181818;stroke-width:1.0;"/><polygon fill="#181818" points="64.96,298.76,72.9026,292.9364,67.444,294.4207,65.9597,288.962,64.96,298.76" style="stroke:#181818;stroke-width:1.0;"/></g><!--link c1 to Perfil1--><g id="link_c1_Perfil1"><path d="M110.28,234.22 C118.16,247.73 132.4554,272.2481 144.9054,293.5781 " fill="none" id="c1-to-Perfil1" style="stroke:#181818;stroke-width:1.0;"/><polygon fill="#181818" points="147.93,298.76,146.8477,288.9708,145.4095,294.4418,139.9385,293.0036,147.93,298.76" style="stroke:#181818;stroke-width:1.0;"/></g><!--link Categoria to c2--><g id="link_Categoria_c2"><path d="M65.09,349.47 C77.31,370.81 91.2661,395.1646 98.9761,408.6146 " fill="none" id="Categoria-to-c2" style="stroke:#181818;stroke-width:1.0;"/><polygon fill="#181818" points="101.96,413.82,100.9544,404.0226,99.4734,409.4822,94.0139,408.0012,101.96,413.82" style="stroke:#181818;stroke-width:1.0;"/></g><!--link Perfil1 to c2--><g id="link_Perfil1_c2"><path d="M147.79,349.47 C135.35,370.81 121.1244,395.188 113.2744,408.638 " fill="none" id="Perfil1-to-c2" style="stroke:#181818;stroke-width:1.0;"/><polygon fill="#181818" points="110.25,413.82,118.2413,408.0633,112.7704,409.5017,111.332,404.0308,110.25,413.82" style="stroke:#181818;stroke-width:1.0;"/></g><!--link c2 to Contenido--><g id="link_c2_Contenido"><path d="M106.07,434.56 C106.07,452.45 106.07,481.21 106.07,504.77 " fill="none" id="c2-to-Contenido" style="stroke:#181818;stroke-width:1.0;"/><polygon fill="#181818" points="106.07,510.77,110.07,501.77,106.07,505.77,102.07,501.77,106.07,510.77" style="stroke:#181818;stroke-width:1.0;"/><text fill="#000000" font-family="sans-serif" font-size="13" lengthAdjust="spacing" textLength="80.8628" x="107.07" y="477.0669">Recomienda</text></g><!--link Contenido to *end*--><g id="link_Contenido_*end*"><path d="M106.07,561.46 C106.07,581.04 106.07,601.49 106.07,615.8 " fill="none" id="Contenido-to-*end*" style="stroke:#181818;stroke-width:1.0;"/><polygon fill="#181818" points="106.07,621.8,110.07,612.8,106.07,616.8,102.07,612.8,106.07,621.8" style="stroke:#181818;stroke-width:1.0;"/></g><!--SRC=[Aov9B4bLI3PKiB59piZFJ4wri-CgXeWP8OjnHMl5AkZgsYa4f1QbPUPmGIYm252pbK9mQdffPX4Na0qISWOQa9vVb9a84u0eD-I2Iq1q6a7DCOHnWPQ2zUVdbQJcPQRa0qqEIatEpyrCpKj9v488WnG1NGG0]--></g></svg>