<svg xmlns="http://www.w3.org/2000/svg" xmlns:xlink="http://www.w3.org/1999/xlink" contentStyleType="text/css" height="751px" preserveAspectRatio="none" style="width:330px;height:751px;background:#FFFFFF;" version="1.1" viewBox="0 0 330 751" width="330px" zoomAndPan="magnify"><title>Sistema de Recomendaci&#243;n</title><defs/><g><text fill="#000000" font-family="sans-serif" font-size="14" font-weight="bold" lengthAdjust="spacing" textLength="217.0957" x="49.677" y="22.9951">Sistema de Recomendaci&#243;n</text><g id="elem_c1"><polygon fill="#F1F1F1" points="119.52,267.2969,131.52,279.2969,119.52,291.2969,107.52,279.2969,119.52,267.2969" style="stroke:#181818;stroke-width:0.5;"/></g><g id="elem_c2"><polygon fill="#F1F1F1" points="119.52,495.2969,131.52,507.2969,119.52,519.2969,107.52,507.2969,119.52,495.2969" style="stroke:#181818;stroke-width:0.5;"/></g><ellipse cx="119.52" cy="53.2969" fill="#222222" rx="10" ry="10" style="stroke:#222222;stroke-width:1;"/><g id="Perfil"><rect fill="#F1F1F1" height="50" rx="12.5" ry="12.5" style="stroke:#181818;stroke-width:0.5;" width="55.5195" x="91.76" y="140.2969"/><line style="stroke:#181818;stroke-width:0.5;" x1="91.76" x2="147.2795" y1="166.5938" y2="166.5938"/><text fill="#000000" font-family="sans-serif" font-size="14" lengthAdjust="spacing" textLength="35.5195" x="101.76" y="158.292">Perfil</text></g><g id="Categoria"><rect fill="#F1F1F1" height="50" rx="12.5" ry="12.5" style="stroke:#181818;stroke-width:0.5;" width="88.1338" x="20.45" y="368.2969"/><line style="stroke:#181818;stroke-width:0.5;" x1="20.45" x2="108.5838" y1="394.5938" y2="394.5938"/><text fill="#000000" font-family="sans-serif" font-size="14" lengthAdjust="spacing" textLength="68.1338" x="30.45" y="386.292">Categoria</text></g><g id="Perfil1"><rect fill="#F1F1F1" height="50" rx="12.5" ry="12.5" style="stroke:#181818;stroke-width:0.5;" width="64.4268" x="165.31" y="368.2969"/><line style="stroke:#181818;stroke-width:0.5;" x1="165.31" x2="229.7368" y1="394.5938" y2="394.5938"/><text fill="#000000" font-family="sans-serif" font-size="14" lengthAdjust="spacing" textLength="44.4268" x="175.31" y="386.292">Perfil1</text></g><g id="Contenido"><rect fill="#F1F1F1" height="50" rx="12.5" ry="12.5" style="stroke:#181818;stroke-width:0.5;" width="91.5313" x="73.75" y="596.2969"/><line style="stroke:#181818;stroke-width:0.5;" x1="73.75" x2="165.2813" y1="622.5938" y2="622.5938"/><text fill="#000000" font-family="sans-serif" font-size="14" lengthAdjust="spacing" textLength="71.5313" x="83.75" y="614.292">Contenido</text></g><ellipse cx="119.52" cy="734.2969" fill="none" rx="11" ry="11" style="stroke:#222222;stroke-width:1;"/><ellipse cx="119.52" cy="734.2969" fill="#222222" rx="6" ry="6" style="stroke:#222222;stroke-width:1;"/><!--link *start* to Perfil--><g id="link_*start*_Perfil"><path d="M119.52,63.6769 C119.52,80.4069 119.52,109.8869 119.52,133.9269 " fill="none" id="*start*-to-Perfil" style="stroke:#181818;stroke-width:1;"/><polygon fill="#181818" points="119.52,139.9269,123.52,130.9269,119.52,134.9269,115.52,130.9269,119.52,139.9269" style="stroke:#181818;stroke-width:1;"/><text fill="#000000" font-family="sans-serif" font-size="13" lengthAdjust="spacing" textLength="34.3979" x="120.52" y="106.3638">Inicio</text></g><!--link Perfil to c1--><g id="link_Perfil_c1"><path d="M119.52,190.5969 C119.52,214.1469 119.52,242.8469 119.52,260.7169 " fill="none" id="Perfil-to-c1" style="stroke:#181818;stroke-width:1;"/><polygon fill="#181818" points="119.52,266.7169,123.52,257.7169,119.52,261.7169,115.52,257.7169,119.52,266.7169" style="stroke:#181818;stroke-width:1;"/><text fill="#000000" font-family="sans-serif" font-size="13" lengthAdjust="spacing" textLength="93.209" x="120.52" y="233.3638">Realiza acci&#243;n</text></g><!--link c1 to Categoria--><g id="link_c1_Categoria"><path d="M108.69,280.8569 C86.82,282.6269 37.69,290.0769 16.52,321.2969 C6,336.8169 13.1203,350.1136 27.4803,363.8236 " fill="none" id="c1-to-Categoria" style="stroke:#181818;stroke-width:1;"/><polygon fill="#181818" points="31.82,367.9669,28.0726,358.8588,28.2036,364.5141,22.5482,364.6451,31.82,367.9669" style="stroke:#181818;stroke-width:1;"/><text fill="#000000" font-family="sans-serif" font-size="13" lengthAdjust="spacing" textLength="159.8721" x="17.52" y="334.3638">Interact&#250;a con categor&#237;a</text></g><!--link c1 to Perfil1--><g id="link_c1_Perfil1"><path d="M127.83,283.3869 C141.33,288.8469 167.89,301.5469 181.52,321.2969 C190.99,335.0269 194.295,347.5027 195.905,362.1627 " fill="none" id="c1-to-Perfil1" style="stroke:#181818;stroke-width:1;"/><polygon fill="#181818" points="196.56,368.1269,199.5536,358.744,196.0142,363.1568,191.6014,359.6173,196.56,368.1269" style="stroke:#181818;stroke-width:1;"/><text fill="#000000" font-family="sans-serif" font-size="13" lengthAdjust="spacing" textLength="131.9297" x="190.52" y="334.3638">Interact&#250;a con perfil</text></g><!--link Categoria to c2--><g id="link_Categoria_c2"><path d="M70.68,418.7569 C74.73,432.8269 80.73,450.5769 88.52,465.2969 C95.7,478.8669 103.228,488.2276 110.028,495.8576 " fill="none" id="Categoria-to-c2" style="stroke:#181818;stroke-width:1;"/><polygon fill="#181818" points="114.02,500.3369,111.0182,490.9566,110.6933,496.6042,105.0458,496.2793,114.02,500.3369" style="stroke:#181818;stroke-width:1;"/><text fill="#000000" font-family="sans-serif" font-size="13" lengthAdjust="spacing" textLength="33.1094" x="89.52" y="461.3638">Filtra</text></g><!--link Perfil1 to c2--><g id="link_Perfil1_c2"><path d="M180.59,418.5969 C162.49,444.5869 138.3584,479.2429 127.5384,494.7829 " fill="none" id="Perfil1-to-c2" style="stroke:#181818;stroke-width:1;"/><polygon fill="#181818" points="124.11,499.7069,132.5353,494.6065,126.967,495.6035,125.97,490.0352,124.11,499.7069" style="stroke:#181818;stroke-width:1;"/><text fill="#000000" font-family="sans-serif" font-size="13" lengthAdjust="spacing" textLength="33.1094" x="159.52" y="461.3638">Filtra</text></g><!--link c2 to Contenido--><g id="link_c2_Contenido"><path d="M119.52,519.8569 C119.52,537.7469 119.52,566.5069 119.52,590.0669 " fill="none" id="c2-to-Contenido" style="stroke:#181818;stroke-width:1;"/><polygon fill="#181818" points="119.52,596.0669,123.52,587.0669,119.52,591.0669,115.52,587.0669,119.52,596.0669" style="stroke:#181818;stroke-width:1;"/><text fill="#000000" font-family="sans-serif" font-size="13" lengthAdjust="spacing" textLength="149.4873" x="120.52" y="562.3638">Recomienda contenido</text></g><!--link Contenido to *end*--><g id="link_Contenido_*end*"><path d="M119.52,646.6569 C119.52,670.5269 119.52,699.7569 119.52,717.0069 " fill="none" id="Contenido-to-*end*" style="stroke:#181818;stroke-width:1;"/><polygon fill="#181818" points="119.52,723.0069,123.52,714.0069,119.52,718.0069,115.52,714.0069,119.52,723.0069" style="stroke:#181818;stroke-width:1;"/><text fill="#000000" font-family="sans-serif" font-size="13" lengthAdjust="spacing" textLength="19.3286" x="120.52" y="689.3638">Fin</text></g><!--SRC=[RP2_2i8m4CRtFCNDGeTsBAMB8BY9Zk9mN4yzI1DfC_bEJcwkVJ4lYQKYRidtVVUxFq62PJZ86BX7w1ZsJBvdro79z7Hc31WOg8IceQiNuhQTjUfRCyVL2OgYXHqFPx5GmzO9YJUVVxIKKYiVhTmHa7835QEtLkJ53uAfCl205AON0da7bBtfWNCwGyi_sLjop89BZIjDRiI60SrS-glhEytX5UYaysbKFON4MqHqbiqIYF6uTKIuDm00]--></g></svg>