<svg xmlns="http://www.w3.org/2000/svg" xmlns:xlink="http://www.w3.org/1999/xlink" contentStyleType="text/css" height="422px" preserveAspectRatio="none" style="width:249px;height:422px;background:#FFFFFF;" version="1.1" viewBox="0 0 249 422" width="249px" zoomAndPan="magnify"><title>Suscripciones entre Perfiles</title><defs/><g><text fill="#000000" font-family="sans-serif" font-size="14" font-weight="bold" lengthAdjust="spacing" textLength="221.3955" x="10" y="22.9951">Suscripciones entre Perfiles</text><ellipse cx="57.9314" cy="53.2969" fill="#222222" rx="10" ry="10" style="stroke:#222222;stroke-width:1;"/><g id="Perfil"><rect fill="#F1F1F1" height="50" rx="12.5" ry="12.5" style="stroke:#181818;stroke-width:0.5;" width="55.5195" x="30.1714" y="140.2969"/><line style="stroke:#181818;stroke-width:0.5;" x1="30.1714" x2="85.6909" y1="166.5938" y2="166.5938"/><text fill="#000000" font-family="sans-serif" font-size="14" lengthAdjust="spacing" textLength="35.5195" x="40.1714" y="158.292">Perfil</text></g><g id="Perfil1"><rect fill="#F1F1F1" height="50" rx="12.5" ry="12.5" style="stroke:#181818;stroke-width:0.5;" width="64.4268" x="25.7214" y="267.2969"/><line style="stroke:#181818;stroke-width:0.5;" x1="25.7214" x2="90.1482" y1="293.5938" y2="293.5938"/><text fill="#000000" font-family="sans-serif" font-size="14" lengthAdjust="spacing" textLength="44.4268" x="35.7214" y="285.292">Perfil1</text></g><ellipse cx="57.9314" cy="405.2969" fill="none" rx="11" ry="11" style="stroke:#222222;stroke-width:1;"/><ellipse cx="57.9314" cy="405.2969" fill="#222222" rx="6" ry="6" style="stroke:#222222;stroke-width:1;"/><!--link *start* to Perfil--><g id="link_*start*_Perfil"><path d="M57.9314,63.6769 C57.9314,80.4069 57.9314,109.8869 57.9314,133.9269 " fill="none" id="*start*-to-Perfil" style="stroke:#181818;stroke-width:1;"/><polygon fill="#181818" points="57.9314,139.9269,61.9314,130.9269,57.9314,134.9269,53.9314,130.9269,57.9314,139.9269" style="stroke:#181818;stroke-width:1;"/><text fill="#000000" font-family="sans-serif" font-size="13" lengthAdjust="spacing" textLength="100.0454" x="58.9314" y="106.3638">Usuario accede</text></g><!--link Perfil to Perfil1--><g id="link_Perfil_Perfil1"><path d="M57.9314,190.6969 C57.9314,212.7169 57.9314,238.9569 57.9314,260.9569 " fill="none" id="Perfil-to-Perfil1" style="stroke:#181818;stroke-width:1;"/><polygon fill="#181818" points="57.9314,266.9569,61.9314,257.9569,57.9314,261.9569,53.9314,257.9569,57.9314,266.9569" style="stroke:#181818;stroke-width:1;"/><text fill="#000000" font-family="sans-serif" font-size="13" lengthAdjust="spacing" textLength="169.7427" x="58.9314" y="233.3638">Realiza suscripci&#243;n/regalo</text></g><!--link Perfil1 to *end*--><g id="link_Perfil1_*end*"><path d="M57.9314,317.6569 C57.9314,341.5269 57.9314,370.7569 57.9314,388.0069 " fill="none" id="Perfil1-to-*end*" style="stroke:#181818;stroke-width:1;"/><polygon fill="#181818" points="57.9314,394.0069,61.9314,385.0069,57.9314,389.0069,53.9314,385.0069,57.9314,394.0069" style="stroke:#181818;stroke-width:1;"/><text fill="#000000" font-family="sans-serif" font-size="13" lengthAdjust="spacing" textLength="19.3286" x="58.9314" y="360.3638">Fin</text></g><!--SRC=[AyaioKbL22ujJYxAB4ZEpCzBBLP8pIifIbK8I2rAoyn9BUQArefLqDMrWmeeM2c45fSc5cNcAoGc9wUcf791nH5A385gWb8JSpAh4XMAOIOVtfodNvIQdfYJpmLJ1T81CjnAmIqp3m00]--></g></svg>