<svg xmlns="http://www.w3.org/2000/svg" xmlns:xlink="http://www.w3.org/1999/xlink" contentStyleType="text/css" height="353px" preserveAspectRatio="none" style="width:149px;height:353px;background:#FFFFFF;" version="1.1" viewBox="0 0 149 353" width="149px" zoomAndPan="magnify"><defs/><g><ellipse cx="39.21" cy="16" fill="#222222" rx="10" ry="10" style="stroke:#222222;stroke-width:1.0;"/><g id="Perfil"><rect fill="#F1F1F1" height="50" rx="12.5" ry="12.5" style="stroke:#181818;stroke-width:0.5;" width="55.5195" x="11.45" y="87"/><line style="stroke:#181818;stroke-width:0.5;" x1="11.45" x2="66.9695" y1="113.2969" y2="113.2969"/><text fill="#000000" font-family="sans-serif" font-size="14" lengthAdjust="spacing" textLength="35.5195" x="21.45" y="104.9951">Perfil</text></g><g id="Perfil1"><rect fill="#F1F1F1" height="50" rx="12.5" ry="12.5" style="stroke:#181818;stroke-width:0.5;" width="64.4268" x="7" y="214"/><line style="stroke:#181818;stroke-width:0.5;" x1="7" x2="71.4268" y1="240.2969" y2="240.2969"/><text fill="#000000" font-family="sans-serif" font-size="14" lengthAdjust="spacing" textLength="44.4268" x="17" y="231.9951">Perfil1</text></g><ellipse cx="39.21" cy="336" fill="none" rx="11" ry="11" style="stroke:#222222;stroke-width:1.0;"/><ellipse cx="39.21" cy="336" fill="#222222" rx="6" ry="6" style="stroke:#222222;stroke-width:1.0;"/><!--link *start* to Perfil--><g id="link_*start*_Perfil"><path d="M39.21,26.36 C39.21,40.29 39.21,60.95 39.21,80.65 " fill="none" id="*start*-to-Perfil" style="stroke:#181818;stroke-width:1.0;"/><polygon fill="#181818" points="39.21,86.65,43.21,77.65,39.21,81.65,35.21,77.65,39.21,86.65" style="stroke:#181818;stroke-width:1.0;"/></g><!--link Perfil to Perfil1--><g id="link_Perfil_Perfil1"><path d="M39.21,137.4 C39.21,159.42 39.21,185.66 39.21,207.66 " fill="none" id="Perfil-to-Perfil1" style="stroke:#181818;stroke-width:1.0;"/><polygon fill="#181818" points="39.21,213.66,43.21,204.66,39.21,208.66,35.21,204.66,39.21,213.66" style="stroke:#181818;stroke-width:1.0;"/><text fill="#000000" font-family="sans-serif" font-size="13" lengthAdjust="spacing" textLength="101.1372" x="40.21" y="180.0669">Suscribe/regala</text></g><!--link Perfil1 to *end*--><g id="link_Perfil1_*end*"><path d="M39.21,264.46 C39.21,284.04 39.21,304.49 39.21,318.8 " fill="none" id="Perfil1-to-*end*" style="stroke:#181818;stroke-width:1.0;"/><polygon fill="#181818" points="39.21,324.8,43.21,315.8,39.21,319.8,35.21,315.8,39.21,324.8" style="stroke:#181818;stroke-width:1.0;"/></g><!--SRC=[YzQALT3LjLC8I2rAoypXWb188eOALWh1fSN9HPb9gVf5gUc9EObSC1cGgcYjM000]--></g></svg>