<svg xmlns="http://www.w3.org/2000/svg" xmlns:xlink="http://www.w3.org/1999/xlink" contentStyleType="text/css" height="752px" preserveAspectRatio="none" style="width:342px;height:752px;background:#FFFFFF;" version="1.1" viewBox="0 0 342 752" width="342px" zoomAndPan="magnify"><defs/><g><g id="elem_c1"><polygon fill="#F1F1F1" points="172.11,198,184.11,210,172.11,222,160.11,210,172.11,198" style="stroke:#181818;stroke-width:0.5;"/></g><g id="elem_c2"><polygon fill="#F1F1F1" points="164.11,443,176.11,455,164.11,467,152.11,455,164.11,443" style="stroke:#181818;stroke-width:0.5;"/></g><g id="elem_c3"><polygon fill="#F1F1F1" points="232.11,639,244.11,651,232.11,663,220.11,651,232.11,639" style="stroke:#181818;stroke-width:0.5;"/></g><ellipse cx="172.11" cy="16" fill="#222222" rx="10" ry="10" style="stroke:#222222;stroke-width:1.0;"/><g id="Usuario"><rect fill="#F1F1F1" height="50" rx="12.5" ry="12.5" style="stroke:#181818;stroke-width:0.5;" width="73.2041" x="135.51" y="87"/><line style="stroke:#181818;stroke-width:0.5;" x1="135.51" x2="208.7141" y1="113.2969" y2="113.2969"/><text fill="#000000" font-family="sans-serif" font-size="14" lengthAdjust="spacing" textLength="53.2041" x="145.51" y="104.9951">Usuario</text></g><g id="Registro"><rect fill="#F1F1F1" height="50" rx="12.5" ry="12.5" style="stroke:#181818;stroke-width:0.5;" width="78.2217" x="7" y="283"/><line style="stroke:#181818;stroke-width:0.5;" x1="7" x2="85.2217" y1="309.2969" y2="309.2969"/><text fill="#000000" font-family="sans-serif" font-size="14" lengthAdjust="spacing" textLength="58.2217" x="17" y="300.9951">Registro</text></g><g id="InicioSesion"><rect fill="#F1F1F1" height="50" rx="12.5" ry="12.5" style="stroke:#181818;stroke-width:0.5;" width="103.166" x="120.53" y="283"/><line style="stroke:#181818;stroke-width:0.5;" x1="120.53" x2="223.696" y1="309.2969" y2="309.2969"/><text fill="#000000" font-family="sans-serif" font-size="14" lengthAdjust="spacing" textLength="83.166" x="130.53" y="300.9951">InicioSesion</text></g><g id="PerfilAnonimo"><rect fill="#F1F1F1" height="50" rx="12.5" ry="12.5" style="stroke:#181818;stroke-width:0.5;" width="117.501" x="218.36" y="363"/><line style="stroke:#181818;stroke-width:0.5;" x1="218.36" x2="335.861" y1="389.2969" y2="389.2969"/><text fill="#000000" font-family="sans-serif" font-size="14" lengthAdjust="spacing" textLength="97.501" x="228.36" y="380.9951">PerfilAnonimo</text></g><g id="Perfil"><rect fill="#F1F1F1" height="50" rx="12.5" ry="12.5" style="stroke:#181818;stroke-width:0.5;" width="55.5195" x="160.35" y="528"/><line style="stroke:#181818;stroke-width:0.5;" x1="160.35" x2="215.8695" y1="554.2969" y2="554.2969"/><text fill="#000000" font-family="sans-serif" font-size="14" lengthAdjust="spacing" textLength="35.5195" x="170.35" y="545.9951">Perfil</text></g><ellipse cx="232.11" cy="735" fill="none" rx="11" ry="11" style="stroke:#222222;stroke-width:1.0;"/><ellipse cx="232.11" cy="735" fill="#222222" rx="6" ry="6" style="stroke:#222222;stroke-width:1.0;"/><!--link *start* to Usuario--><g id="link_*start*_Usuario"><path d="M172.11,26.36 C172.11,40.29 172.11,60.95 172.11,80.65 " fill="none" id="*start*-to-Usuario" style="stroke:#181818;stroke-width:1.0;"/><polygon fill="#181818" points="172.11,86.65,176.11,77.65,172.11,81.65,168.11,77.65,172.11,86.65" style="stroke:#181818;stroke-width:1.0;"/></g><!--link Usuario to c1--><g id="link_Usuario_c1"><path d="M172.11,137.47 C172.11,156.69 172.11,176.6 172.11,191.38 " fill="none" id="Usuario-to-c1" style="stroke:#181818;stroke-width:1.0;"/><polygon fill="#181818" points="172.11,197.38,176.11,188.38,172.11,192.38,168.11,188.38,172.11,197.38" style="stroke:#181818;stroke-width:1.0;"/></g><!--link c1 to Registro--><g id="link_c1_Registro"><path d="M165.69,215.89 C149.79,228 112.5121,256.4031 82.7921,279.0531 " fill="none" id="c1-to-Registro" style="stroke:#181818;stroke-width:1.0;"/><polygon fill="#181818" points="78.02,282.69,87.6028,280.4161,81.9968,279.6593,82.7536,274.0533,78.02,282.69" style="stroke:#181818;stroke-width:1.0;"/></g><!--link c1 to InicioSesion--><g id="link_c1_InicioSesion"><path d="M172.11,222.39 C172.11,237.19 172.11,257.42 172.11,276.77 " fill="none" id="c1-to-InicioSesion" style="stroke:#181818;stroke-width:1.0;"/><polygon fill="#181818" points="172.11,282.77,176.11,273.77,172.11,277.77,168.11,273.77,172.11,282.77" style="stroke:#181818;stroke-width:1.0;"/></g><!--link c1 to PerfilAnonimo--><g id="link_c1_PerfilAnonimo"><path d="M178.38,215.91 C191.73,226.68 223.23,253.75 241.11,283 C256.46,308.11 264.921,334.8176 270.381,356.7576 " fill="none" id="c1-to-PerfilAnonimo" style="stroke:#181818;stroke-width:1.0;"/><polygon fill="#181818" points="271.83,362.58,273.5382,352.8804,270.6225,357.728,265.7749,354.8124,271.83,362.58" style="stroke:#181818;stroke-width:1.0;"/></g><!--link Registro to c2--><g id="link_Registro_c2"><path d="M58.45,333.3 C70.39,355.46 89.9,388.4 112.11,413 C126.13,428.53 141.4715,439.4267 152.0715,446.3267 " fill="none" id="Registro-to-c2" style="stroke:#181818;stroke-width:1.0;"/><polygon fill="#181818" points="157.1,449.6,151.7394,441.3378,152.9096,446.8723,147.3751,448.0424,157.1,449.6" style="stroke:#181818;stroke-width:1.0;"/><text fill="#000000" font-family="sans-serif" font-size="13" lengthAdjust="spacing" textLength="28.4438" x="113.11" y="392.5669">creo</text></g><!--link InicioSesion to c2--><g id="link_InicioSesion_c2"><path d="M160.95,333.49 C157.38,342.56 153.89,353.06 152.11,363 C148.19,384.87 148.96,391 152.11,413 C153.77,424.6 155.9062,431.8588 158.8662,440.0288 " fill="none" id="InicioSesion-to-c2" style="stroke:#181818;stroke-width:1.0;"/><polygon fill="#181818" points="160.91,445.67,161.6051,435.8457,159.2068,440.969,154.0835,438.5708,160.91,445.67" style="stroke:#181818;stroke-width:1.0;"/><text fill="#000000" font-family="sans-serif" font-size="13" lengthAdjust="spacing" textLength="47.3916" x="153.11" y="392.5669">Accedo</text></g><!--link c2 to Perfil--><g id="link_c2_Perfil"><path d="M166.41,465.2 C169.98,479.47 175.5055,501.579 180.5855,521.909 " fill="none" id="c2-to-Perfil" style="stroke:#181818;stroke-width:1.0;"/><polygon fill="#181818" points="182.04,527.73,183.7389,518.0288,180.8279,522.8791,175.9775,519.9682,182.04,527.73" style="stroke:#181818;stroke-width:1.0;"/></g><!--link Perfil to c3--><g id="link_Perfil_c3"><path d="M199.33,578.47 C209,599.58 219.8673,623.3069 226.1273,636.9469 " fill="none" id="Perfil-to-c3" style="stroke:#181818;stroke-width:1.0;"/><polygon fill="#181818" points="228.63,642.4,228.5114,632.5519,226.5444,637.8557,221.2406,635.8888,228.63,642.4" style="stroke:#181818;stroke-width:1.0;"/></g><!--link PerfilAnonimo to c3--><g id="link_PerfilAnonimo_c3"><path d="M272.96,413.09 C263.43,468.36 241.3288,596.5271 234.8488,634.1371 " fill="none" id="PerfilAnonimo-to-c3" style="stroke:#181818;stroke-width:1.0;"/><polygon fill="#181818" points="233.83,640.05,239.3001,631.8599,234.679,635.1226,231.4162,630.5015,233.83,640.05" style="stroke:#181818;stroke-width:1.0;"/></g><!--link c3 to *end*--><g id="link_c3_*end*"><path d="M232.11,663.4 C232.11,679.42 232.11,702.34 232.11,717.73 " fill="none" id="c3-to-*end*" style="stroke:#181818;stroke-width:1.0;"/><polygon fill="#181818" points="232.11,723.73,236.11,714.73,232.11,718.73,228.11,714.73,232.11,723.73" style="stroke:#181818;stroke-width:1.0;"/></g><!--SRC=[RO-n2W8n343tV4LcuGPxcno56zr4kKaSZXWre0sqzV_DMOiL74AIb-H1Kfup8wrn6EYcGkmzfCBS7zQt38wh4tQTnoazvoWAd_ncfWIBfTppLLAEMljj418zS18DbUquNkG-1WtoKAWNnUHmWnHPeJtyZaOYFflSDI8egIpry6Elq9vPAdlY1G00]--></g></svg>