<svg xmlns="http://www.w3.org/2000/svg" xmlns:xlink="http://www.w3.org/1999/xlink" contentStyleType="text/css" height="692px" preserveAspectRatio="none" style="width:533px;height:692px;background:#FFFFFF;" version="1.1" viewBox="0 0 533 692" width="533px" zoomAndPan="magnify"><title>Diagrama de clases</title><defs/><g><text fill="#000000" font-family="sans-serif" font-size="14" font-weight="bold" lengthAdjust="spacing" textLength="154.2461" x="182.6147" y="22.9951">Diagrama de clases</text><!--class Usuarios--><g id="elem_Usuarios"><rect codeLine="2" fill="#F1F1F1" height="48" id="Usuarios" rx="2.5" ry="2.5" style="stroke:#181818;stroke-width:0.5;" width="92.498" x="212.52" y="403.2969"/><ellipse cx="227.52" cy="419.2969" fill="#ADD1B2" rx="11" ry="11" style="stroke:#181818;stroke-width:1.0;"/><path d="M230.4888,424.9375 Q229.9106,425.2344 229.27,425.375 Q228.6294,425.5313 227.9263,425.5313 Q225.4263,425.5313 224.0981,423.8906 Q222.7856,422.2344 222.7856,419.1094 Q222.7856,415.9844 224.0981,414.3281 Q225.4263,412.6719 227.9263,412.6719 Q228.6294,412.6719 229.27,412.8281 Q229.9263,412.9844 230.4888,413.2813 L230.4888,416 Q229.8638,415.4219 229.27,415.1563 Q228.6763,414.875 228.0513,414.875 Q226.7075,414.875 226.02,415.9531 Q225.3325,417.0156 225.3325,419.1094 Q225.3325,421.2031 226.02,422.2813 Q226.7075,423.3438 228.0513,423.3438 Q228.6763,423.3438 229.27,423.0781 Q229.8638,422.7969 230.4888,422.2188 L230.4888,424.9375 Z " fill="#000000"/><text fill="#000000" font-family="sans-serif" font-size="14" lengthAdjust="spacing" textLength="60.498" x="241.52" y="424.1436">Usuarios</text><line style="stroke:#181818;stroke-width:0.5;" x1="213.52" x2="304.018" y1="435.2969" y2="435.2969"/><line style="stroke:#181818;stroke-width:0.5;" x1="213.52" x2="304.018" y1="443.2969" y2="443.2969"/></g><!--class Anonimo--><g id="elem_Anonimo"><rect codeLine="3" fill="#F1F1F1" height="48" id="Anonimo" rx="2.5" ry="2.5" style="stroke:#181818;stroke-width:0.5;" width="93.9814" x="211.77" y="278.2969"/><ellipse cx="226.77" cy="294.2969" fill="#ADD1B2" rx="11" ry="11" style="stroke:#181818;stroke-width:1.0;"/><path d="M229.7388,299.9375 Q229.1606,300.2344 228.52,300.375 Q227.8794,300.5313 227.1763,300.5313 Q224.6763,300.5313 223.3481,298.8906 Q222.0356,297.2344 222.0356,294.1094 Q222.0356,290.9844 223.3481,289.3281 Q224.6763,287.6719 227.1763,287.6719 Q227.8794,287.6719 228.52,287.8281 Q229.1763,287.9844 229.7388,288.2813 L229.7388,291 Q229.1138,290.4219 228.52,290.1563 Q227.9263,289.875 227.3013,289.875 Q225.9575,289.875 225.27,290.9531 Q224.5825,292.0156 224.5825,294.1094 Q224.5825,296.2031 225.27,297.2813 Q225.9575,298.3438 227.3013,298.3438 Q227.9263,298.3438 228.52,298.0781 Q229.1138,297.7969 229.7388,297.2188 L229.7388,299.9375 Z " fill="#000000"/><text fill="#000000" font-family="sans-serif" font-size="14" lengthAdjust="spacing" textLength="61.9814" x="240.77" y="299.1436">Anonimo</text><line style="stroke:#181818;stroke-width:0.5;" x1="212.77" x2="304.7514" y1="310.2969" y2="310.2969"/><line style="stroke:#181818;stroke-width:0.5;" x1="212.77" x2="304.7514" y1="318.2969" y2="318.2969"/></g><!--class Perfil--><g id="elem_Perfil"><rect codeLine="4" fill="#F1F1F1" height="48" id="Perfil" rx="2.5" ry="2.5" style="stroke:#181818;stroke-width:0.5;" width="67.5195" x="109.01" y="278.2969"/><ellipse cx="124.01" cy="294.2969" fill="#ADD1B2" rx="11" ry="11" style="stroke:#181818;stroke-width:1.0;"/><path d="M126.9788,299.9375 Q126.4006,300.2344 125.76,300.375 Q125.1194,300.5313 124.4163,300.5313 Q121.9163,300.5313 120.5881,298.8906 Q119.2756,297.2344 119.2756,294.1094 Q119.2756,290.9844 120.5881,289.3281 Q121.9163,287.6719 124.4163,287.6719 Q125.1194,287.6719 125.76,287.8281 Q126.4163,287.9844 126.9788,288.2813 L126.9788,291 Q126.3538,290.4219 125.76,290.1563 Q125.1663,289.875 124.5413,289.875 Q123.1975,289.875 122.51,290.9531 Q121.8225,292.0156 121.8225,294.1094 Q121.8225,296.2031 122.51,297.2813 Q123.1975,298.3438 124.5413,298.3438 Q125.1663,298.3438 125.76,298.0781 Q126.3538,297.7969 126.9788,297.2188 L126.9788,299.9375 Z " fill="#000000"/><text fill="#000000" font-family="sans-serif" font-size="14" lengthAdjust="spacing" textLength="35.5195" x="138.01" y="299.1436">Perfil</text><line style="stroke:#181818;stroke-width:0.5;" x1="110.01" x2="175.5295" y1="310.2969" y2="310.2969"/><line style="stroke:#181818;stroke-width:0.5;" x1="110.01" x2="175.5295" y1="318.2969" y2="318.2969"/></g><!--class Suscripci?n--><g id="elem_Suscripci&#243;n"><rect codeLine="5" fill="#F1F1F1" height="48" id="Suscripci&#243;n" rx="2.5" ry="2.5" style="stroke:#181818;stroke-width:0.5;" width="112.3086" x="147.61" y="153.2969"/><ellipse cx="162.61" cy="169.2969" fill="#ADD1B2" rx="11" ry="11" style="stroke:#181818;stroke-width:1.0;"/><path d="M165.5788,174.9375 Q165.0006,175.2344 164.36,175.375 Q163.7194,175.5313 163.0163,175.5313 Q160.5163,175.5313 159.1881,173.8906 Q157.8756,172.2344 157.8756,169.1094 Q157.8756,165.9844 159.1881,164.3281 Q160.5163,162.6719 163.0163,162.6719 Q163.7194,162.6719 164.36,162.8281 Q165.0163,162.9844 165.5788,163.2813 L165.5788,166 Q164.9538,165.4219 164.36,165.1563 Q163.7663,164.875 163.1413,164.875 Q161.7975,164.875 161.11,165.9531 Q160.4225,167.0156 160.4225,169.1094 Q160.4225,171.2031 161.11,172.2813 Q161.7975,173.3438 163.1413,173.3438 Q163.7663,173.3438 164.36,173.0781 Q164.9538,172.7969 165.5788,172.2188 L165.5788,174.9375 Z " fill="#000000"/><text fill="#000000" font-family="sans-serif" font-size="14" lengthAdjust="spacing" textLength="80.3086" x="176.61" y="174.1436">Suscripci&#243;n</text><line style="stroke:#181818;stroke-width:0.5;" x1="148.61" x2="258.9186" y1="185.2969" y2="185.2969"/><line style="stroke:#181818;stroke-width:0.5;" x1="148.61" x2="258.9186" y1="193.2969" y2="193.2969"/></g><!--class B?squeda--><g id="elem_B&#250;squeda"><rect codeLine="6" fill="#F1F1F1" height="48" id="B&#250;squeda" rx="2.5" ry="2.5" style="stroke:#181818;stroke-width:0.5;" width="101.6104" x="207.96" y="528.2969"/><ellipse cx="222.96" cy="544.2969" fill="#ADD1B2" rx="11" ry="11" style="stroke:#181818;stroke-width:1.0;"/><path d="M225.9288,549.9375 Q225.3506,550.2344 224.71,550.375 Q224.0694,550.5313 223.3663,550.5313 Q220.8663,550.5313 219.5381,548.8906 Q218.2256,547.2344 218.2256,544.1094 Q218.2256,540.9844 219.5381,539.3281 Q220.8663,537.6719 223.3663,537.6719 Q224.0694,537.6719 224.71,537.8281 Q225.3663,537.9844 225.9288,538.2813 L225.9288,541 Q225.3038,540.4219 224.71,540.1563 Q224.1163,539.875 223.4913,539.875 Q222.1475,539.875 221.46,540.9531 Q220.7725,542.0156 220.7725,544.1094 Q220.7725,546.2031 221.46,547.2813 Q222.1475,548.3438 223.4913,548.3438 Q224.1163,548.3438 224.71,548.0781 Q225.3038,547.7969 225.9288,547.2188 L225.9288,549.9375 Z " fill="#000000"/><text fill="#000000" font-family="sans-serif" font-size="14" lengthAdjust="spacing" textLength="69.6104" x="236.96" y="549.1436">B&#250;squeda</text><line style="stroke:#181818;stroke-width:0.5;" x1="208.96" x2="308.5704" y1="560.2969" y2="560.2969"/><line style="stroke:#181818;stroke-width:0.5;" x1="208.96" x2="308.5704" y1="568.2969" y2="568.2969"/></g><!--class Algoritmo--><g id="elem_Algoritmo"><rect codeLine="7" fill="#F1F1F1" height="48" id="Algoritmo" rx="2.5" ry="2.5" style="stroke:#181818;stroke-width:0.5;" width="100.2568" x="385.64" y="153.2969"/><ellipse cx="400.64" cy="169.2969" fill="#ADD1B2" rx="11" ry="11" style="stroke:#181818;stroke-width:1.0;"/><path d="M403.6088,174.9375 Q403.0306,175.2344 402.39,175.375 Q401.7494,175.5313 401.0463,175.5313 Q398.5463,175.5313 397.2181,173.8906 Q395.9056,172.2344 395.9056,169.1094 Q395.9056,165.9844 397.2181,164.3281 Q398.5463,162.6719 401.0463,162.6719 Q401.7494,162.6719 402.39,162.8281 Q403.0463,162.9844 403.6088,163.2813 L403.6088,166 Q402.9838,165.4219 402.39,165.1563 Q401.7963,164.875 401.1713,164.875 Q399.8275,164.875 399.14,165.9531 Q398.4525,167.0156 398.4525,169.1094 Q398.4525,171.2031 399.14,172.2813 Q399.8275,173.3438 401.1713,173.3438 Q401.7963,173.3438 402.39,173.0781 Q402.9838,172.7969 403.6088,172.2188 L403.6088,174.9375 Z " fill="#000000"/><text fill="#000000" font-family="sans-serif" font-size="14" lengthAdjust="spacing" textLength="68.2568" x="414.64" y="174.1436">Algoritmo</text><line style="stroke:#181818;stroke-width:0.5;" x1="386.64" x2="484.8968" y1="185.2969" y2="185.2969"/><line style="stroke:#181818;stroke-width:0.5;" x1="386.64" x2="484.8968" y1="193.2969" y2="193.2969"/></g><!--class Categoria--><g id="elem_Categoria"><rect codeLine="8" fill="#F1F1F1" height="48" id="Categoria" rx="2.5" ry="2.5" style="stroke:#181818;stroke-width:0.5;" width="100.1338" x="25.7" y="637.2969"/><ellipse cx="40.7" cy="653.2969" fill="#ADD1B2" rx="11" ry="11" style="stroke:#181818;stroke-width:1.0;"/><path d="M43.6688,658.9375 Q43.0906,659.2344 42.45,659.375 Q41.8094,659.5313 41.1063,659.5313 Q38.6063,659.5313 37.2781,657.8906 Q35.9656,656.2344 35.9656,653.1094 Q35.9656,649.9844 37.2781,648.3281 Q38.6063,646.6719 41.1063,646.6719 Q41.8094,646.6719 42.45,646.8281 Q43.1063,646.9844 43.6688,647.2813 L43.6688,650 Q43.0438,649.4219 42.45,649.1563 Q41.8563,648.875 41.2313,648.875 Q39.8875,648.875 39.2,649.9531 Q38.5125,651.0156 38.5125,653.1094 Q38.5125,655.2031 39.2,656.2813 Q39.8875,657.3438 41.2313,657.3438 Q41.8563,657.3438 42.45,657.0781 Q43.0438,656.7969 43.6688,656.2188 L43.6688,658.9375 Z " fill="#000000"/><text fill="#000000" font-family="sans-serif" font-size="14" lengthAdjust="spacing" textLength="68.1338" x="54.7" y="658.1436">Categoria</text><line style="stroke:#181818;stroke-width:0.5;" x1="26.7" x2="124.8338" y1="669.2969" y2="669.2969"/><line style="stroke:#181818;stroke-width:0.5;" x1="26.7" x2="124.8338" y1="677.2969" y2="677.2969"/></g><!--class Contenido--><g id="elem_Contenido"><rect codeLine="9" fill="#F1F1F1" height="48" id="Contenido" rx="2.5" ry="2.5" style="stroke:#181818;stroke-width:0.5;" width="103.5313" x="7" y="153.2969"/><ellipse cx="22" cy="169.2969" fill="#ADD1B2" rx="11" ry="11" style="stroke:#181818;stroke-width:1.0;"/><path d="M24.9688,174.9375 Q24.3906,175.2344 23.75,175.375 Q23.1094,175.5313 22.4063,175.5313 Q19.9063,175.5313 18.5781,173.8906 Q17.2656,172.2344 17.2656,169.1094 Q17.2656,165.9844 18.5781,164.3281 Q19.9063,162.6719 22.4063,162.6719 Q23.1094,162.6719 23.75,162.8281 Q24.4063,162.9844 24.9688,163.2813 L24.9688,166 Q24.3438,165.4219 23.75,165.1563 Q23.1563,164.875 22.5313,164.875 Q21.1875,164.875 20.5,165.9531 Q19.8125,167.0156 19.8125,169.1094 Q19.8125,171.2031 20.5,172.2813 Q21.1875,173.3438 22.5313,173.3438 Q23.1563,173.3438 23.75,173.0781 Q24.3438,172.7969 24.9688,172.2188 L24.9688,174.9375 Z " fill="#000000"/><text fill="#000000" font-family="sans-serif" font-size="14" lengthAdjust="spacing" textLength="71.5313" x="36" y="174.1436">Contenido</text><line style="stroke:#181818;stroke-width:0.5;" x1="8" x2="109.5313" y1="185.2969" y2="185.2969"/><line style="stroke:#181818;stroke-width:0.5;" x1="8" x2="109.5313" y1="193.2969" y2="193.2969"/></g><!--class Busqueda--><g id="elem_Busqueda"><rect fill="#F1F1F1" height="48" id="Busqueda" rx="2.5" ry="2.5" style="stroke:#181818;stroke-width:0.5;" width="101.6104" x="7.96" y="44.2969"/><ellipse cx="22.96" cy="60.2969" fill="#ADD1B2" rx="11" ry="11" style="stroke:#181818;stroke-width:1.0;"/><path d="M25.9288,65.9375 Q25.3506,66.2344 24.71,66.375 Q24.0694,66.5313 23.3663,66.5313 Q20.8663,66.5313 19.5381,64.8906 Q18.2256,63.2344 18.2256,60.1094 Q18.2256,56.9844 19.5381,55.3281 Q20.8663,53.6719 23.3663,53.6719 Q24.0694,53.6719 24.71,53.8281 Q25.3663,53.9844 25.9288,54.2813 L25.9288,57 Q25.3038,56.4219 24.71,56.1563 Q24.1163,55.875 23.4913,55.875 Q22.1475,55.875 21.46,56.9531 Q20.7725,58.0156 20.7725,60.1094 Q20.7725,62.2031 21.46,63.2813 Q22.1475,64.3438 23.4913,64.3438 Q24.1163,64.3438 24.71,64.0781 Q25.3038,63.7969 25.9288,63.2188 L25.9288,65.9375 Z " fill="#000000"/><text fill="#000000" font-family="sans-serif" font-size="14" lengthAdjust="spacing" textLength="69.6104" x="36.96" y="65.1436">Busqueda</text><line style="stroke:#181818;stroke-width:0.5;" x1="8.96" x2="108.5704" y1="76.2969" y2="76.2969"/><line style="stroke:#181818;stroke-width:0.5;" x1="8.96" x2="108.5704" y1="84.2969" y2="84.2969"/></g><!--link Anonimo to Usuarios--><g id="link_Anonimo_Usuarios"><path codeLine="11" d="M258.77,326.7169 C258.77,348.6069 258.77,375.0969 258.77,396.9569 " fill="none" id="Anonimo-to-Usuarios" style="stroke:#181818;stroke-width:1.0;"/><polygon fill="#181818" points="258.77,402.9569,262.77,393.9569,258.77,397.9569,254.77,393.9569,258.77,402.9569" style="stroke:#181818;stroke-width:1.0;"/><text fill="#000000" font-family="sans-serif" font-size="13" lengthAdjust="spacing" textLength="64.5747" x="259.77" y="369.3638">Puede ser</text></g><!--link Perfil to Usuarios--><g id="link_Perfil_Usuarios"><path codeLine="12" d="M153.69,326.6469 C161.15,341.0869 171.99,359.4369 184.77,373.2969 C194.94,384.3369 202.8326,391.0534 214.9226,399.4534 " fill="none" id="Perfil-to-Usuarios" style="stroke:#181818;stroke-width:1.0;"/><polygon fill="#181818" points="219.85,402.8769,214.7412,394.4566,215.7438,400.0239,210.1765,401.0265,219.85,402.8769" style="stroke:#181818;stroke-width:1.0;"/><text fill="#000000" font-family="sans-serif" font-size="13" lengthAdjust="spacing" textLength="64.5747" x="185.77" y="369.3638">Puede ser</text></g><!--link Usuarios to B?squeda--><g id="link_Usuarios_B&#250;squeda"><path codeLine="13" d="M258.77,451.7169 C258.77,473.6069 258.77,500.0969 258.77,521.9569 " fill="none" id="Usuarios-to-B&#250;squeda" style="stroke:#181818;stroke-width:1.0;"/><polygon fill="#181818" points="258.77,527.9569,262.77,518.9569,258.77,522.9569,254.77,518.9569,258.77,527.9569" style="stroke:#181818;stroke-width:1.0;"/><text fill="#000000" font-family="sans-serif" font-size="13" lengthAdjust="spacing" textLength="143.8062" x="259.77" y="494.3638">Busqueda con prompt</text></g><!--link Algoritmo to B?squeda--><g id="link_Algoritmo_B&#250;squeda"><path codeLine="14" d="M445.51,201.6369 C453.29,221.5969 463.55,251.2769 467.77,278.2969 C483.33,377.9869 482.44,426.2869 411.77,498.2969 C384.79,525.7869 348.7619,537.8929 315.6119,544.2729 " fill="none" id="Algoritmo-to-B&#250;squeda" style="stroke:#181818;stroke-width:1.0;"/><polygon fill="#181818" points="309.72,545.4069,319.3138,547.6339,314.6299,544.4619,317.8018,539.778,309.72,545.4069" style="stroke:#181818;stroke-width:1.0;"/><text fill="#000000" font-family="sans-serif" font-size="13" lengthAdjust="spacing" textLength="48.7056" x="476.77" y="369.3638">Emplea</text></g><!--link B?squeda to Categoria--><g id="link_B&#250;squeda_Categoria"><path codeLine="15" d="M218.61,576.7769 C188.09,594.6169 151.5001,616.0193 121.0101,633.8393 " fill="none" id="B&#250;squeda-to-Categoria" style="stroke:#181818;stroke-width:1.0;"/><polygon fill="#181818" points="115.83,636.8669,125.6186,635.779,120.1468,634.3439,121.5818,628.8721,115.83,636.8669" style="stroke:#181818;stroke-width:1.0;"/></g><!--link Busqueda to Contenido--><g id="link_Busqueda_Contenido"><path codeLine="16" d="M58.77,92.7769 C58.77,110.6169 58.77,129.0469 58.77,146.8669 " fill="none" id="Busqueda-to-Contenido" style="stroke:#181818;stroke-width:1.0;"/><polygon fill="#181818" points="58.77,152.8669,62.77,143.8669,58.77,147.8669,54.77,143.8669,58.77,152.8669" style="stroke:#181818;stroke-width:1.0;"/></g><!--link Contenido to Categoria--><g id="link_Contenido_Categoria"><path codeLine="17" d="M57.87,201.4169 C56.98,226.1369 55.77,266.4769 55.77,301.2969 C55.77,301.2969 55.77,301.2969 55.77,553.2969 C55.77,582.5869 61.5436,609.8422 67.3236,631.3622 " fill="none" id="Contenido-to-Categoria" style="stroke:#181818;stroke-width:1.0;"/><polygon fill="#181818" points="68.88,637.1569,70.4085,627.4274,67.583,632.328,62.6824,629.5025,68.88,637.1569" style="stroke:#181818;stroke-width:1.0;"/><text fill="#000000" font-family="sans-serif" font-size="13" lengthAdjust="spacing" textLength="65.6602" x="56.77" y="431.8638">Pertenece</text></g><!--link Contenido to Perfil--><g id="link_Contenido_Perfil"><path codeLine="18" d="M74.76,201.7169 C89.71,223.6069 108.516,251.1422 123.446,273.0022 " fill="none" id="Contenido-to-Perfil" style="stroke:#181818;stroke-width:1.0;"/><polygon fill="#181818" points="126.83,277.9569,125.0572,268.2689,124.01,273.828,118.4509,272.7808,126.83,277.9569" style="stroke:#181818;stroke-width:1.0;"/><text fill="#000000" font-family="sans-serif" font-size="13" lengthAdjust="spacing" textLength="65.6602" x="107.77" y="244.3638">Pertenece</text></g><!--link Suscripci?n to Perfil--><g id="link_Suscripci&#243;n_Perfil"><path codeLine="19" d="M198.47,201.7469 C194.81,215.7069 189.26,233.5269 181.77,248.2969 C176.55,258.5869 173.0155,264.2413 166.2455,273.0913 " fill="none" id="Suscripci&#243;n-to-Perfil" style="stroke:#181818;stroke-width:1.0;"/><polygon fill="#181818" points="162.6,277.8569,171.2453,273.1389,165.6379,273.8856,164.8912,268.2782,162.6,277.8569" style="stroke:#181818;stroke-width:1.0;"/></g><!--link Algoritmo to Usuarios--><g id="link_Algoritmo_Usuarios"><path codeLine="20" d="M427.5,201.7169 C412.93,240.5969 379.72,319.5069 332.77,373.2969 C323,384.4869 315.3608,391.1882 303.3608,399.5082 " fill="none" id="Algoritmo-to-Usuarios" style="stroke:#181818;stroke-width:1.0;stroke-dasharray:7.0,7.0;"/><polygon fill="#181818" points="298.43,402.9269,308.1053,401.086,302.539,400.078,303.5471,394.5117,298.43,402.9269" style="stroke:#181818;stroke-width:1.0;"/><text fill="#000000" font-family="sans-serif" font-size="13" lengthAdjust="spacing" textLength="64.5747" x="394.77" y="306.8638">Puede ser</text></g><!--SRC=[TP0z3i8m38NtdC8NQ0_G0OaMzah00QBKL9RIfEJdP6oilHWDfAOgCCL-_c8_-qn18nn8zauE4Ze4fQL73oAz7Yu-IaVMvtHlhA71vgn5ToMTarFqoj6eQBgRBDNJmzyYTdBvhNlhAF3_HWPCob9lh0begBD2v45G53ls01MqSpS4ZqwyP_-livW8DZ8ZTSoXiWP6PuSn23RsHH-7KQCK7oa1x1i4Ttlfx9-Z3L-bcyqLLBXXyZvhO7tH5RDoMvRbx_MV]--></g></svg>