<svg xmlns="http://www.w3.org/2000/svg" xmlns:xlink="http://www.w3.org/1999/xlink" contentStyleType="text/css" height="724px" preserveAspectRatio="none" style="width:535px;height:724px;background:#FFFFFF;" version="1.1" viewBox="0 0 535 724" width="535px" zoomAndPan="magnify"><title>Diagrama de Clases Mejorado</title><defs/><g><text fill="#000000" font-family="sans-serif" font-size="14" font-weight="bold" lengthAdjust="spacing" textLength="234.9307" x="143.144" y="22.9951">Diagrama de Clases Mejorado</text><!--class Anonimo--><g id="elem_Anonimo"><rect codeLine="2" fill="#F1F1F1" height="48" id="Anonimo" rx="2.5" ry="2.5" style="stroke:#181818;stroke-width:0.5;" width="93.9814" x="187.08" y="44.2969"/><ellipse cx="202.08" cy="60.2969" fill="#ADD1B2" rx="11" ry="11" style="stroke:#181818;stroke-width:1.0;"/><path d="M205.0488,65.9375 Q204.4706,66.2344 203.83,66.375 Q203.1894,66.5313 202.4863,66.5313 Q199.9863,66.5313 198.6581,64.8906 Q197.3456,63.2344 197.3456,60.1094 Q197.3456,56.9844 198.6581,55.3281 Q199.9863,53.6719 202.4863,53.6719 Q203.1894,53.6719 203.83,53.8281 Q204.4863,53.9844 205.0488,54.2813 L205.0488,57 Q204.4238,56.4219 203.83,56.1563 Q203.2363,55.875 202.6113,55.875 Q201.2675,55.875 200.58,56.9531 Q199.8925,58.0156 199.8925,60.1094 Q199.8925,62.2031 200.58,63.2813 Q201.2675,64.3438 202.6113,64.3438 Q203.2363,64.3438 203.83,64.0781 Q204.4238,63.7969 205.0488,63.2188 L205.0488,65.9375 Z " fill="#000000"/><text fill="#000000" font-family="sans-serif" font-size="14" lengthAdjust="spacing" textLength="61.9814" x="216.08" y="65.1436">Anonimo</text><line style="stroke:#181818;stroke-width:0.5;" x1="188.08" x2="280.0614" y1="76.2969" y2="76.2969"/><line style="stroke:#181818;stroke-width:0.5;" x1="188.08" x2="280.0614" y1="84.2969" y2="84.2969"/></g><!--class Usuario--><g id="elem_Usuario"><rect codeLine="3" fill="#F1F1F1" height="48" id="Usuario" rx="2.5" ry="2.5" style="stroke:#181818;stroke-width:0.5;" width="85.2041" x="285.46" y="169.2969"/><ellipse cx="300.46" cy="185.2969" fill="#ADD1B2" rx="11" ry="11" style="stroke:#181818;stroke-width:1.0;"/><path d="M303.4288,190.9375 Q302.8506,191.2344 302.21,191.375 Q301.5694,191.5313 300.8663,191.5313 Q298.3663,191.5313 297.0381,189.8906 Q295.7256,188.2344 295.7256,185.1094 Q295.7256,181.9844 297.0381,180.3281 Q298.3663,178.6719 300.8663,178.6719 Q301.5694,178.6719 302.21,178.8281 Q302.8663,178.9844 303.4288,179.2813 L303.4288,182 Q302.8038,181.4219 302.21,181.1563 Q301.6163,180.875 300.9913,180.875 Q299.6475,180.875 298.96,181.9531 Q298.2725,183.0156 298.2725,185.1094 Q298.2725,187.2031 298.96,188.2813 Q299.6475,189.3438 300.9913,189.3438 Q301.6163,189.3438 302.21,189.0781 Q302.8038,188.7969 303.4288,188.2188 L303.4288,190.9375 Z " fill="#000000"/><text fill="#000000" font-family="sans-serif" font-size="14" lengthAdjust="spacing" textLength="53.2041" x="314.46" y="190.1436">Usuario</text><line style="stroke:#181818;stroke-width:0.5;" x1="286.46" x2="369.6641" y1="201.2969" y2="201.2969"/><line style="stroke:#181818;stroke-width:0.5;" x1="286.46" x2="369.6641" y1="209.2969" y2="209.2969"/></g><!--class Perfil--><g id="elem_Perfil"><rect codeLine="4" fill="#F1F1F1" height="48" id="Perfil" rx="2.5" ry="2.5" style="stroke:#181818;stroke-width:0.5;" width="67.5195" x="307.31" y="544.2969"/><ellipse cx="322.31" cy="560.2969" fill="#ADD1B2" rx="11" ry="11" style="stroke:#181818;stroke-width:1.0;"/><path d="M325.2788,565.9375 Q324.7006,566.2344 324.06,566.375 Q323.4194,566.5313 322.7163,566.5313 Q320.2163,566.5313 318.8881,564.8906 Q317.5756,563.2344 317.5756,560.1094 Q317.5756,556.9844 318.8881,555.3281 Q320.2163,553.6719 322.7163,553.6719 Q323.4194,553.6719 324.06,553.8281 Q324.7163,553.9844 325.2788,554.2813 L325.2788,557 Q324.6538,556.4219 324.06,556.1563 Q323.4663,555.875 322.8413,555.875 Q321.4975,555.875 320.81,556.9531 Q320.1225,558.0156 320.1225,560.1094 Q320.1225,562.2031 320.81,563.2813 Q321.4975,564.3438 322.8413,564.3438 Q323.4663,564.3438 324.06,564.0781 Q324.6538,563.7969 325.2788,563.2188 L325.2788,565.9375 Z " fill="#000000"/><text fill="#000000" font-family="sans-serif" font-size="14" lengthAdjust="spacing" textLength="35.5195" x="336.31" y="565.1436">Perfil</text><line style="stroke:#181818;stroke-width:0.5;" x1="308.31" x2="373.8295" y1="576.2969" y2="576.2969"/><line style="stroke:#181818;stroke-width:0.5;" x1="308.31" x2="373.8295" y1="584.2969" y2="584.2969"/></g><!--class B?squeda--><g id="elem_B&#250;squeda"><rect codeLine="5" fill="#F1F1F1" height="48" id="B&#250;squeda" rx="2.5" ry="2.5" style="stroke:#181818;stroke-width:0.5;" width="101.6104" x="140.26" y="294.2969"/><ellipse cx="155.26" cy="310.2969" fill="#ADD1B2" rx="11" ry="11" style="stroke:#181818;stroke-width:1.0;"/><path d="M158.2288,315.9375 Q157.6506,316.2344 157.01,316.375 Q156.3694,316.5313 155.6663,316.5313 Q153.1663,316.5313 151.8381,314.8906 Q150.5256,313.2344 150.5256,310.1094 Q150.5256,306.9844 151.8381,305.3281 Q153.1663,303.6719 155.6663,303.6719 Q156.3694,303.6719 157.01,303.8281 Q157.6663,303.9844 158.2288,304.2813 L158.2288,307 Q157.6038,306.4219 157.01,306.1563 Q156.4163,305.875 155.7913,305.875 Q154.4475,305.875 153.76,306.9531 Q153.0725,308.0156 153.0725,310.1094 Q153.0725,312.2031 153.76,313.2813 Q154.4475,314.3438 155.7913,314.3438 Q156.4163,314.3438 157.01,314.0781 Q157.6038,313.7969 158.2288,313.2188 L158.2288,315.9375 Z " fill="#000000"/><text fill="#000000" font-family="sans-serif" font-size="14" lengthAdjust="spacing" textLength="69.6104" x="169.26" y="315.1436">B&#250;squeda</text><line style="stroke:#181818;stroke-width:0.5;" x1="141.26" x2="240.8704" y1="326.2969" y2="326.2969"/><line style="stroke:#181818;stroke-width:0.5;" x1="141.26" x2="240.8704" y1="334.2969" y2="334.2969"/></g><!--class Categoria--><g id="elem_Categoria"><rect codeLine="6" fill="#F1F1F1" height="48" id="Categoria" rx="2.5" ry="2.5" style="stroke:#181818;stroke-width:0.5;" width="100.1338" x="7" y="544.2969"/><ellipse cx="22" cy="560.2969" fill="#ADD1B2" rx="11" ry="11" style="stroke:#181818;stroke-width:1.0;"/><path d="M24.9688,565.9375 Q24.3906,566.2344 23.75,566.375 Q23.1094,566.5313 22.4063,566.5313 Q19.9063,566.5313 18.5781,564.8906 Q17.2656,563.2344 17.2656,560.1094 Q17.2656,556.9844 18.5781,555.3281 Q19.9063,553.6719 22.4063,553.6719 Q23.1094,553.6719 23.75,553.8281 Q24.4063,553.9844 24.9688,554.2813 L24.9688,557 Q24.3438,556.4219 23.75,556.1563 Q23.1563,555.875 22.5313,555.875 Q21.1875,555.875 20.5,556.9531 Q19.8125,558.0156 19.8125,560.1094 Q19.8125,562.2031 20.5,563.2813 Q21.1875,564.3438 22.5313,564.3438 Q23.1563,564.3438 23.75,564.0781 Q24.3438,563.7969 24.9688,563.2188 L24.9688,565.9375 Z " fill="#000000"/><text fill="#000000" font-family="sans-serif" font-size="14" lengthAdjust="spacing" textLength="68.1338" x="36" y="565.1436">Categoria</text><line style="stroke:#181818;stroke-width:0.5;" x1="8" x2="106.1338" y1="576.2969" y2="576.2969"/><line style="stroke:#181818;stroke-width:0.5;" x1="8" x2="106.1338" y1="584.2969" y2="584.2969"/></g><!--class Contenido--><g id="elem_Contenido"><rect codeLine="7" fill="#F1F1F1" height="48" id="Contenido" rx="2.5" ry="2.5" style="stroke:#181818;stroke-width:0.5;" width="103.5313" x="139.3" y="419.2969"/><ellipse cx="154.3" cy="435.2969" fill="#ADD1B2" rx="11" ry="11" style="stroke:#181818;stroke-width:1.0;"/><path d="M157.2688,440.9375 Q156.6906,441.2344 156.05,441.375 Q155.4094,441.5313 154.7063,441.5313 Q152.2063,441.5313 150.8781,439.8906 Q149.5656,438.2344 149.5656,435.1094 Q149.5656,431.9844 150.8781,430.3281 Q152.2063,428.6719 154.7063,428.6719 Q155.4094,428.6719 156.05,428.8281 Q156.7063,428.9844 157.2688,429.2813 L157.2688,432 Q156.6438,431.4219 156.05,431.1563 Q155.4563,430.875 154.8313,430.875 Q153.4875,430.875 152.8,431.9531 Q152.1125,433.0156 152.1125,435.1094 Q152.1125,437.2031 152.8,438.2813 Q153.4875,439.3438 154.8313,439.3438 Q155.4563,439.3438 156.05,439.0781 Q156.6438,438.7969 157.2688,438.2188 L157.2688,440.9375 Z " fill="#000000"/><text fill="#000000" font-family="sans-serif" font-size="14" lengthAdjust="spacing" textLength="71.5313" x="168.3" y="440.1436">Contenido</text><line style="stroke:#181818;stroke-width:0.5;" x1="140.3" x2="241.8313" y1="451.2969" y2="451.2969"/><line style="stroke:#181818;stroke-width:0.5;" x1="140.3" x2="241.8313" y1="459.2969" y2="459.2969"/></g><!--class Suscripci?n--><g id="elem_Suscripci&#243;n"><rect codeLine="8" fill="#F1F1F1" height="48" id="Suscripci&#243;n" rx="2.5" ry="2.5" style="stroke:#181818;stroke-width:0.5;" width="112.3086" x="415.91" y="419.2969"/><ellipse cx="430.91" cy="435.2969" fill="#ADD1B2" rx="11" ry="11" style="stroke:#181818;stroke-width:1.0;"/><path d="M433.8788,440.9375 Q433.3006,441.2344 432.66,441.375 Q432.0194,441.5313 431.3163,441.5313 Q428.8163,441.5313 427.4881,439.8906 Q426.1756,438.2344 426.1756,435.1094 Q426.1756,431.9844 427.4881,430.3281 Q428.8163,428.6719 431.3163,428.6719 Q432.0194,428.6719 432.66,428.8281 Q433.3163,428.9844 433.8788,429.2813 L433.8788,432 Q433.2538,431.4219 432.66,431.1563 Q432.0663,430.875 431.4413,430.875 Q430.0975,430.875 429.41,431.9531 Q428.7225,433.0156 428.7225,435.1094 Q428.7225,437.2031 429.41,438.2813 Q430.0975,439.3438 431.4413,439.3438 Q432.0663,439.3438 432.66,439.0781 Q433.2538,438.7969 433.8788,438.2188 L433.8788,440.9375 Z " fill="#000000"/><text fill="#000000" font-family="sans-serif" font-size="14" lengthAdjust="spacing" textLength="80.3086" x="444.91" y="440.1436">Suscripci&#243;n</text><line style="stroke:#181818;stroke-width:0.5;" x1="416.91" x2="527.2186" y1="451.2969" y2="451.2969"/><line style="stroke:#181818;stroke-width:0.5;" x1="416.91" x2="527.2186" y1="459.2969" y2="459.2969"/></g><!--class Algoritmo--><g id="elem_Algoritmo"><rect codeLine="9" fill="#F1F1F1" height="48" id="Algoritmo" rx="2.5" ry="2.5" style="stroke:#181818;stroke-width:0.5;" width="100.2568" x="140.94" y="169.2969"/><ellipse cx="155.94" cy="185.2969" fill="#ADD1B2" rx="11" ry="11" style="stroke:#181818;stroke-width:1.0;"/><path d="M158.9088,190.9375 Q158.3306,191.2344 157.69,191.375 Q157.0494,191.5313 156.3463,191.5313 Q153.8463,191.5313 152.5181,189.8906 Q151.2056,188.2344 151.2056,185.1094 Q151.2056,181.9844 152.5181,180.3281 Q153.8463,178.6719 156.3463,178.6719 Q157.0494,178.6719 157.69,178.8281 Q158.3463,178.9844 158.9088,179.2813 L158.9088,182 Q158.2838,181.4219 157.69,181.1563 Q157.0963,180.875 156.4713,180.875 Q155.1275,180.875 154.44,181.9531 Q153.7525,183.0156 153.7525,185.1094 Q153.7525,187.2031 154.44,188.2813 Q155.1275,189.3438 156.4713,189.3438 Q157.0963,189.3438 157.69,189.0781 Q158.2838,188.7969 158.9088,188.2188 L158.9088,190.9375 Z " fill="#000000"/><text fill="#000000" font-family="sans-serif" font-size="14" lengthAdjust="spacing" textLength="68.2568" x="169.94" y="190.1436">Algoritmo</text><line style="stroke:#181818;stroke-width:0.5;" x1="141.94" x2="240.1968" y1="201.2969" y2="201.2969"/><line style="stroke:#181818;stroke-width:0.5;" x1="141.94" x2="240.1968" y1="209.2969" y2="209.2969"/></g><!--class Comentario--><g id="elem_Comentario"><rect codeLine="10" fill="#F1F1F1" height="48" id="Comentario" rx="2.5" ry="2.5" style="stroke:#181818;stroke-width:0.5;" width="113.7441" x="346.19" y="44.2969"/><ellipse cx="361.19" cy="60.2969" fill="#ADD1B2" rx="11" ry="11" style="stroke:#181818;stroke-width:1.0;"/><path d="M364.1588,65.9375 Q363.5806,66.2344 362.94,66.375 Q362.2994,66.5313 361.5963,66.5313 Q359.0963,66.5313 357.7681,64.8906 Q356.4556,63.2344 356.4556,60.1094 Q356.4556,56.9844 357.7681,55.3281 Q359.0963,53.6719 361.5963,53.6719 Q362.2994,53.6719 362.94,53.8281 Q363.5963,53.9844 364.1588,54.2813 L364.1588,57 Q363.5338,56.4219 362.94,56.1563 Q362.3463,55.875 361.7213,55.875 Q360.3775,55.875 359.69,56.9531 Q359.0025,58.0156 359.0025,60.1094 Q359.0025,62.2031 359.69,63.2813 Q360.3775,64.3438 361.7213,64.3438 Q362.3463,64.3438 362.94,64.0781 Q363.5338,63.7969 364.1588,63.2188 L364.1588,65.9375 Z " fill="#000000"/><text fill="#000000" font-family="sans-serif" font-size="14" lengthAdjust="spacing" textLength="81.7441" x="375.19" y="65.1436">Comentario</text><line style="stroke:#181818;stroke-width:0.5;" x1="347.19" x2="458.9341" y1="76.2969" y2="76.2969"/><line style="stroke:#181818;stroke-width:0.5;" x1="347.19" x2="458.9341" y1="84.2969" y2="84.2969"/></g><!--class ListaDeReproducci?n--><g id="elem_ListaDeReproducci&#243;n"><rect codeLine="11" fill="#F1F1F1" height="48" id="ListaDeReproducci&#243;n" rx="2.5" ry="2.5" style="stroke:#181818;stroke-width:0.5;" width="180.4766" x="129.83" y="669.2969"/><ellipse cx="144.83" cy="685.2969" fill="#ADD1B2" rx="11" ry="11" style="stroke:#181818;stroke-width:1.0;"/><path d="M147.7987,690.9375 Q147.2206,691.2344 146.58,691.375 Q145.9394,691.5313 145.2362,691.5313 Q142.7362,691.5313 141.4081,689.8906 Q140.0956,688.2344 140.0956,685.1094 Q140.0956,681.9844 141.4081,680.3281 Q142.7362,678.6719 145.2362,678.6719 Q145.9394,678.6719 146.58,678.8281 Q147.2362,678.9844 147.7987,679.2813 L147.7987,682 Q147.1737,681.4219 146.58,681.1563 Q145.9862,680.875 145.3612,680.875 Q144.0175,680.875 143.33,681.9531 Q142.6425,683.0156 142.6425,685.1094 Q142.6425,687.2031 143.33,688.2813 Q144.0175,689.3438 145.3612,689.3438 Q145.9862,689.3438 146.58,689.0781 Q147.1737,688.7969 147.7987,688.2188 L147.7987,690.9375 Z " fill="#000000"/><text fill="#000000" font-family="sans-serif" font-size="14" lengthAdjust="spacing" textLength="148.4766" x="158.83" y="690.1436">ListaDeReproducci&#243;n</text><line style="stroke:#181818;stroke-width:0.5;" x1="130.83" x2="309.3066" y1="701.2969" y2="701.2969"/><line style="stroke:#181818;stroke-width:0.5;" x1="130.83" x2="309.3066" y1="709.2969" y2="709.2969"/></g><!--link Anonimo to Usuario--><g id="link_Anonimo_Usuario"><path codeLine="13" d="M237.6,92.6969 C240.66,107.1569 246.22,125.5069 256.07,139.2969 C264.28,150.7869 270.8699,157.3162 282.2499,165.4562 " fill="none" id="Anonimo-to-Usuario" style="stroke:#181818;stroke-width:1.0;"/><polygon fill="#181818" points="287.13,168.9469,282.137,160.4575,283.0633,166.038,277.4828,166.9643,287.13,168.9469" style="stroke:#181818;stroke-width:1.0;"/><text fill="#000000" font-family="sans-serif" font-size="13" lengthAdjust="spacing" textLength="64.5747" x="257.07" y="135.3638">Puede ser</text></g><!--link Perfil to Usuario--><g id="link_Perfil_Usuario"><path codeLine="14" d="M341.32,543.9569 C341.4,530.3469 341.4,512.8469 341.07,497.2969 C338.83,392.8069 332.5755,274.1775 329.7355,223.4675 " fill="none" id="Perfil-to-Usuario" style="stroke:#181818;stroke-width:1.0;"/><polygon fill="#181818" points="329.4,217.4769,325.9095,226.6865,329.6796,222.4691,333.897,226.2391,329.4,217.4769" style="stroke:#181818;stroke-width:1.0;"/><text fill="#000000" font-family="sans-serif" font-size="13" lengthAdjust="spacing" textLength="43.564" x="338.07" y="385.3638">Es una</text></g><!--link Usuario to B?squeda--><g id="link_Usuario_B&#250;squeda"><path codeLine="15" d="M303.25,217.4969 C288.48,231.2169 269.31,248.8669 252.07,264.2969 C241.09,274.1169 233.3853,280.8686 222.7753,290.0586 " fill="none" id="Usuario-to-B&#250;squeda" style="stroke:#181818;stroke-width:1.0;"/><polygon fill="#181818" points="218.24,293.9869,227.6617,291.118,222.0194,290.7133,222.424,285.0709,218.24,293.9869" style="stroke:#181818;stroke-width:1.0;"/><text fill="#000000" font-family="sans-serif" font-size="13" lengthAdjust="spacing" textLength="47.0107" x="270.07" y="260.3638">Realiza</text></g><!--link B?squeda to Contenido--><g id="link_B&#250;squeda_Contenido"><path codeLine="16" d="M191.07,342.7169 C191.07,364.6069 191.07,391.0969 191.07,412.9569 " fill="none" id="B&#250;squeda-to-Contenido" style="stroke:#181818;stroke-width:1.0;"/><polygon fill="#181818" points="191.07,418.9569,195.07,409.9569,191.07,413.9569,187.07,409.9569,191.07,418.9569" style="stroke:#181818;stroke-width:1.0;"/><text fill="#000000" font-family="sans-serif" font-size="13" lengthAdjust="spacing" textLength="66.4854" x="192.07" y="385.3638">Encuentra</text></g><!--link B?squeda to Categoria--><g id="link_B&#250;squeda_Categoria"><path codeLine="17" d="M157.76,342.5869 C134.32,360.7669 104.2,388.1269 87.07,419.2969 C65.03,459.3869 59.405,507.5946 57.855,538.0446 " fill="none" id="B&#250;squeda-to-Categoria" style="stroke:#181818;stroke-width:1.0;"/><polygon fill="#181818" points="57.55,544.0369,62.0024,535.2519,57.8042,539.0433,54.0127,534.8452,57.55,544.0369" style="stroke:#181818;stroke-width:1.0;"/><text fill="#000000" font-family="sans-serif" font-size="13" lengthAdjust="spacing" textLength="33.1094" x="88.07" y="447.8638">Filtra</text></g><!--link Contenido to Categoria--><g id="link_Contenido_Categoria"><path codeLine="18" d="M138.99,467.6869 C124.66,475.7269 109.83,485.6669 98.07,497.2969 C84.54,510.6569 76.4733,523.9862 69.4133,538.7162 " fill="none" id="Contenido-to-Categoria" style="stroke:#181818;stroke-width:1.0;"/><polygon fill="#181818" points="66.82,544.1269,74.317,537.7398,68.9811,539.618,67.1028,534.2821,66.82,544.1269" style="stroke:#181818;stroke-width:1.0;"/><text fill="#000000" font-family="sans-serif" font-size="13" lengthAdjust="spacing" textLength="65.6602" x="99.07" y="510.3638">Pertenece</text></g><!--link Contenido to Perfil--><g id="link_Contenido_Perfil"><path codeLine="19" d="M205.9,467.6769 C215.99,482.2969 230.32,500.8469 246.07,514.2969 C264.31,529.8769 282.4393,540.4023 301.5093,549.7223 " fill="none" id="Contenido-to-Perfil" style="stroke:#181818;stroke-width:1.0;"/><polygon fill="#181818" points="306.9,552.3569,300.5704,544.8113,302.4078,550.1614,297.0577,551.9988,306.9,552.3569" style="stroke:#181818;stroke-width:1.0;"/><text fill="#000000" font-family="sans-serif" font-size="13" lengthAdjust="spacing" textLength="89.4639" x="247.07" y="510.3638">Es creado por</text></g><!--link Suscripci?n to Perfil--><g id="link_Suscripci&#243;n_Perfil"><path codeLine="20" d="M447.12,467.7169 C423.81,489.6069 393.5739,517.9897 370.2939,539.8497 " fill="none" id="Suscripci&#243;n-to-Perfil" style="stroke:#181818;stroke-width:1.0;"/><polygon fill="#181818" points="365.92,543.9569,375.219,540.7121,369.565,540.5343,369.7428,534.8802,365.92,543.9569" style="stroke:#181818;stroke-width:1.0;"/><text fill="#000000" font-family="sans-serif" font-size="13" lengthAdjust="spacing" textLength="42.3452" x="415.07" y="510.3638">Asocia</text></g><!--link Perfil to ListaDeReproducci?n--><g id="link_Perfil_ListaDeReproducci&#243;n"><path codeLine="21" d="M318.02,592.7169 C296.49,614.6069 268.7373,642.8192 247.2373,664.6792 " fill="none" id="Perfil-to-ListaDeReproducci&#243;n" style="stroke:#181818;stroke-width:1.0;"/><polygon fill="#181818" points="243.03,668.9569,252.1927,665.3451,246.5361,665.3921,246.4891,659.7355,243.03,668.9569" style="stroke:#181818;stroke-width:1.0;"/><text fill="#000000" font-family="sans-serif" font-size="13" lengthAdjust="spacing" textLength="70.4526" x="289.07" y="635.3638">Administra</text></g><!--link ListaDeReproducci?n to Contenido--><g id="link_ListaDeReproducci&#243;n_Contenido"><path codeLine="22" d="M217.32,668.8469 C211.79,621.4769 200.0159,520.8564 194.4959,473.5864 " fill="none" id="ListaDeReproducci&#243;n-to-Contenido" style="stroke:#181818;stroke-width:1.0;"/><polygon fill="#181818" points="193.8,467.6269,190.8709,477.0301,194.3799,472.5931,198.8169,476.1022,193.8,467.6269" style="stroke:#181818;stroke-width:1.0;"/><text fill="#000000" font-family="sans-serif" font-size="13" lengthAdjust="spacing" textLength="58.2144" x="209.07" y="572.8638">Contiene</text></g><!--link Comentario to Contenido--><g id="link_Comentario_Contenido"><path codeLine="23" d="M410.71,92.7969 C427.98,150.8269 463.06,302.4769 390.07,389.2969 C371.26,411.6669 301.2278,426.1586 248.7978,434.3686 " fill="none" id="Comentario-to-Contenido" style="stroke:#181818;stroke-width:1.0;"/><polygon fill="#181818" points="242.87,435.2969,252.3805,437.8564,247.8098,434.5234,251.1428,429.9527,242.87,435.2969" style="stroke:#181818;stroke-width:1.0;"/><text fill="#000000" font-family="sans-serif" font-size="13" lengthAdjust="spacing" textLength="63.5273" x="435.07" y="260.3638">Relaciona</text></g><!--link Comentario to Usuario--><g id="link_Comentario_Usuario"><path codeLine="24" d="M363.96,92.6969 C353.61,100.7869 343.54,110.7569 337.07,122.2969 C329.16,136.4069 327.1024,148.5776 326.8824,162.8676 " fill="none" id="Comentario-to-Usuario" style="stroke:#181818;stroke-width:1.0;"/><polygon fill="#181818" points="326.79,168.8669,330.9281,159.9295,326.867,163.8675,322.929,159.8064,326.79,168.8669" style="stroke:#181818;stroke-width:1.0;"/><text fill="#000000" font-family="sans-serif" font-size="13" lengthAdjust="spacing" textLength="69.8242" x="338.07" y="135.3638">Escrito por</text></g><!--link Algoritmo to B?squeda--><g id="link_Algoritmo_B&#250;squeda"><path codeLine="25" d="M189.45,217.7669 C188.89,226.9669 188.34,237.6269 188.07,247.2969 C187.63,262.8569 188.0016,274.3688 188.8616,287.9788 " fill="none" id="Algoritmo-to-B&#250;squeda" style="stroke:#181818;stroke-width:1.0;"/><polygon fill="#181818" points="189.24,293.9669,192.6645,284.7325,188.9247,288.9768,184.6804,285.237,189.24,293.9669" style="stroke:#181818;stroke-width:1.0;"/><text fill="#000000" font-family="sans-serif" font-size="13" lengthAdjust="spacing" textLength="58.2588" x="189.07" y="260.3638">Optimiza</text></g><!--SRC=[RL51KiCm3Bpx5Vv0Fy21cPB22OPEW0Te7D4HuzYfR5_u5ZUk_HXoOoSXwSqhhQpTrJj5Y_f0S6BeGNUe6mi1Wtx1By_GUMK41xrttb5VqKT8m5JH4VcJR04FbzzmJjX1mGr4F7cc2NiNqT7qyLiAXcamTFbnTPVD0r6sDMMaHnUl2yV2CuK81snnODybCywg8b7lTlTLeBxJHz62EY2hKUQg_HXqSg1g8JSd1z9k4InzWvfhcJ5vo1yuaqGTRpZLjt2Uo6R2FBOcY3JfeC4LfqY-oZICSWuzU5RBpFxpzi4RYNfXzLPMcTZrvAGbicuorZRpcqIYce-nuRHemP1ti2OjunRXSNGndNcJ-kiGgPVO_m00]--></g></svg>