<svg xmlns="http://www.w3.org/2000/svg" xmlns:xlink="http://www.w3.org/1999/xlink" contentStyleType="text/css" height="603px" preserveAspectRatio="none" style="width:460px;height:603px;background:#FFFFFF;" version="1.1" viewBox="0 0 460 603" width="460px" zoomAndPan="magnify"><title>Diagrama De Objetos</title><defs/><g><text fill="#000000" font-family="sans-serif" font-size="14" font-weight="bold" lengthAdjust="spacing" textLength="168" x="139.4619" y="22.9951">Diagrama De Objetos</text><g id="elem_Usuario"><rect fill="#F1F1F1" height="36.2969" style="stroke:#181818;stroke-width:0.5;" width="67.2041" x="207.54" y="165.1869"/><text fill="#000000" font-family="sans-serif" font-size="14" lengthAdjust="spacing" textLength="53.2041" x="214.54" y="180.182">Usuario</text><line style="stroke:#181818;stroke-width:0.5;" x1="208.54" x2="273.7441" y1="185.4838" y2="185.4838"/></g><g id="elem_Anonimo"><rect fill="#F1F1F1" height="60.8906" style="stroke:#181818;stroke-width:0.5;" width="176.0898" x="226.1" y="44.2969"/><text fill="#000000" font-family="sans-serif" font-size="14" lengthAdjust="spacing" textLength="61.9814" x="283.1542" y="59.292">Anonimo</text><line style="stroke:#181818;stroke-width:0.5;" x1="227.1" x2="401.1898" y1="64.5938" y2="64.5938"/><text fill="#000000" font-family="sans-serif" font-size="14" lengthAdjust="spacing" textLength="85.6543" x="232.1" y="81.5889">id: @xxxxxx</text><text fill="#000000" font-family="sans-serif" font-size="14" lengthAdjust="spacing" textLength="164.0898" x="232.1" y="97.8857">name = user_3q4i0234</text></g><g id="elem_Perfil"><rect fill="#F1F1F1" height="93.4844" style="stroke:#181818;stroke-width:0.5;" width="180.2939" x="7" y="366.0769"/><text fill="#000000" font-family="sans-serif" font-size="14" lengthAdjust="spacing" textLength="35.5195" x="79.3872" y="381.072">Perfil</text><line style="stroke:#181818;stroke-width:0.5;" x1="8" x2="186.2939" y1="386.3738" y2="386.3738"/><text fill="#000000" font-family="sans-serif" font-size="14" lengthAdjust="spacing" textLength="85.6543" x="13" y="403.3689">id: @xxxxxx</text><text fill="#000000" font-family="sans-serif" font-size="14" lengthAdjust="spacing" textLength="112.8477" x="13" y="419.6657">name: "Paco33"</text><text fill="#000000" font-family="sans-serif" font-size="14" lengthAdjust="spacing" textLength="168.2939" x="13" y="435.9626">email: Paco@gmail.com</text><text fill="#000000" font-family="sans-serif" font-size="14" lengthAdjust="spacing" textLength="123.1152" x="13" y="452.2595">contrase&#241;a: 1234</text></g><g id="elem_B&#250;squeda"><rect fill="#F1F1F1" height="44.5938" style="stroke:#181818;stroke-width:0.5;" width="185.1816" x="148.56" y="261.4769"/><text fill="#000000" font-family="sans-serif" font-size="14" lengthAdjust="spacing" textLength="69.6104" x="206.3456" y="276.472">B&#250;squeda</text><line style="stroke:#181818;stroke-width:0.5;" x1="149.56" x2="332.7416" y1="281.7738" y2="281.7738"/><text fill="#000000" font-family="sans-serif" font-size="14" lengthAdjust="spacing" textLength="173.1816" x="154.56" y="298.7689">cuadroDeBusqueda: "Irl"</text></g><g id="elem_Contenido"><rect fill="#F1F1F1" height="77.1875" style="stroke:#181818;stroke-width:0.5;" width="159.5537" x="294.37" y="374.2269"/><text fill="#000000" font-family="sans-serif" font-size="14" lengthAdjust="spacing" textLength="71.5313" x="338.3812" y="389.222">Contenido</text><line style="stroke:#181818;stroke-width:0.5;" x1="295.37" x2="452.9237" y1="394.5238" y2="394.5238"/><text fill="#000000" font-family="sans-serif" font-size="14" lengthAdjust="spacing" textLength="65.625" x="300.37" y="411.5189">tipo: vlog</text><text fill="#000000" font-family="sans-serif" font-size="14" lengthAdjust="spacing" textLength="147.5537" x="300.37" y="427.8157">derechosDigitales: Si</text><text fill="#000000" font-family="sans-serif" font-size="14" lengthAdjust="spacing" textLength="81.3613" x="300.37" y="444.1126">&gt;=18? : No</text></g><g id="elem_Categoria"><rect fill="#F1F1F1" height="77.1875" style="stroke:#181818;stroke-width:0.5;" width="165.8975" x="224.2" y="519.5569"/><text fill="#000000" font-family="sans-serif" font-size="14" lengthAdjust="spacing" textLength="68.1338" x="273.0818" y="534.552">Categoria</text><line style="stroke:#181818;stroke-width:0.5;" x1="225.2" x2="389.0975" y1="539.8538" y2="539.8538"/><text fill="#000000" font-family="sans-serif" font-size="14" lengthAdjust="spacing" textLength="65.7139" x="230.2" y="556.8489">Tipo: "Irl"</text><text fill="#000000" font-family="sans-serif" font-size="14" lengthAdjust="spacing" textLength="153.8975" x="230.2" y="573.1457">Derechos Digitales: Si</text><text fill="#000000" font-family="sans-serif" font-size="14" lengthAdjust="spacing" textLength="81.3613" x="230.2" y="589.4426">&gt;=18? : No</text></g><!--link Anonimo to Usuario--><g id="link_Anonimo_Usuario"><path codeLine="27" d="M293.81,105.4269 C280.73,124.5269 267.5811,143.7371 256.5511,159.8371 " fill="none" id="Anonimo-to-Usuario" style="stroke:#181818;stroke-width:1.0;"/><polygon fill="#181818" points="253.16,164.7869,261.5465,159.6229,255.9859,160.662,254.9467,155.1014,253.16,164.7869" style="stroke:#181818;stroke-width:1.0;"/></g><!--link Perfil to Usuario--><g id="link_Perfil_Usuario"><path codeLine="28" d="M98.98,365.6769 C102.19,334.0369 110.43,292.3669 131.15,261.4769 C149.86,233.5869 177.0018,215.4448 201.8318,202.4748 " fill="none" id="Perfil-to-Usuario" style="stroke:#181818;stroke-width:1.0;"/><polygon fill="#181818" points="207.15,199.6969,197.3208,200.3184,202.7182,202.0118,201.0247,207.4093,207.15,199.6969" style="stroke:#181818;stroke-width:1.0;"/></g><!--link Usuario to B?squeda--><g id="link_Usuario_B&#250;squeda"><path codeLine="29" d="M241.15,201.9369 C241.15,218.5269 241.15,237.4269 241.15,255.2069 " fill="none" id="Usuario-to-B&#250;squeda" style="stroke:#181818;stroke-width:1.0;"/><polygon fill="#181818" points="241.15,261.2069,245.15,252.2069,241.15,256.2069,237.15,252.2069,241.15,261.2069" style="stroke:#181818;stroke-width:1.0;"/></g><!--link B?squeda to Perfil--><g id="link_B&#250;squeda_Perfil"><path codeLine="30" d="M216.72,306.3269 C198.34,322.5369 176.9906,341.389 154.0106,361.649 " fill="none" id="B&#250;squeda-to-Perfil" style="stroke:#181818;stroke-width:1.0;"/><polygon fill="#181818" points="149.51,365.6169,158.9062,362.6654,153.2605,362.3103,153.6157,356.6646,149.51,365.6169" style="stroke:#181818;stroke-width:1.0;"/></g><!--link B?squeda to Contenido--><g id="link_B&#250;squeda_Contenido"><path codeLine="31" d="M263.71,306.3269 C283.05,324.8069 307.0309,347.7129 330.1509,369.7929 " fill="none" id="B&#250;squeda-to-Contenido" style="stroke:#181818;stroke-width:1.0;"/><polygon fill="#181818" points="334.49,373.9369,330.744,364.8282,330.8741,370.4836,325.2187,370.6137,334.49,373.9369" style="stroke:#181818;stroke-width:1.0;"/></g><!--link B?squeda to Categoria--><g id="link_B&#250;squeda_Categoria"><path codeLine="32" d="M244.93,306.4569 C250.87,339.6369 263.16,404.9369 277.15,459.5569 C282.25,479.4769 287.07,495.6696 292.8,513.6696 " fill="none" id="B&#250;squeda-to-Categoria" style="stroke:#181818;stroke-width:1.0;"/><polygon fill="#181818" points="294.62,519.3869,295.7015,509.5976,293.1033,514.6225,288.0785,512.0243,294.62,519.3869" style="stroke:#181818;stroke-width:1.0;"/></g><!--link Contenido to Categoria--><g id="link_Contenido_Categoria"><path codeLine="33" d="M356.37,451.8569 C346.6,472.7569 337.0595,493.1508 327.3195,514.0008 " fill="none" id="Contenido-to-Categoria" style="stroke:#181818;stroke-width:1.0;"/><polygon fill="#181818" points="324.78,519.4369,332.2132,512.9757,326.8962,514.9068,324.9651,509.5898,324.78,519.4369" style="stroke:#181818;stroke-width:1.0;"/></g><!--link Anonimo to Contenido--><g id="link_Anonimo_Contenido"><path codeLine="34" d="M320.52,105.5769 C328.24,142.2069 341.43,206.2669 351.15,261.4769 C357.85,299.5769 363.5652,337.3681 367.9452,367.7981 " fill="none" id="Anonimo-to-Contenido" style="stroke:#181818;stroke-width:1.0;stroke-dasharray:7.0,7.0;"/><polygon fill="#181818" points="368.8,373.7369,371.477,364.2588,368.0877,368.7879,363.5586,365.3986,368.8,373.7369" style="stroke:#181818;stroke-width:1.0;"/></g><!--SRC=[VP2zJiD0381tFuMLlH4b7T19BQLaOO5Ab1cPn0r6IKplBWWfug5OMVjYf4cJ_Y1nYy-Vpj_PNedF6MEXp59163C-lBonLmVQnCJZawl8YlRfJQcb55g3f0Rdd-s1aWh6ALQExNEqcSZ5PJI1hxvaoNOj-TyAWy6I4esY0BWWoGtkqdcskuU95f1ewIqvtdwJmV69Sx7zSPkAKweXgIYr6lEYwaYZlRDvS7XxssYub5In1Y_lQl0ZrmnIjfoygeib4qyvEuEF0hFf-EeQ3TxhaO0yPsg56i6g5NG_n7i3_gE0_S9mD9eDk-msSeBsiMN3S33SMjwLdS5XkdFUDms7-KzvtraOXaUQNm00]--></g></svg>